<?xml version="1.0" standalone="no"?>
<!DOCTYPE svg PUBLIC "-//W3C//DTD SVG 1.1//EN" 
    "http://www.w3.org/Graphics/SVG/1.1/DTD/svg11.dtd">
<svg width="21cm" height="29.7cm"
    xmlns="http://www.w3.org/2000/svg" version="1.1" viewBox="0 0 744.09449 1052.3622">
  <g fill="none" stroke="black" stroke-width="0.3cm" stroke-linejoin="round" stroke-linecap="round">
    <path d="M218.10312 96.57237 L221.0426 102.57863 L226.00063 112.70939 L234.41969 129.91208 L247.01605 155.65027 L254.3232 170.58101 L262.20148 186.67872 L270.57473 203.78781 L279.36679 221.75267 L288.50153 240.41772 L297.9028 259.62736 L312.33784 289.12254 L331.80667 328.90328 L346.24172 358.39846 L355.64298 377.6081 L373.56978 414.23801 L381.94303 431.3471 L389.82131 447.44481 L397.12846 462.37555 L409.72482 488.11374 L413.65662 496.1476 L416.01209 500.96055 L420.04245 509.1958 L421.6983 512.5792 L425.11431 519.55914 L426.04139 521.45345" />
    <path d="M439.70642 535.8359 L443.17214 543.38512 L447.87998 553.64001 L454.18995 567.38474 L457.85036 575.35807 L461.79688 583.95459 L468.16963 597.83607 L486.91198 638.66174 L496.66462 659.90549 L506.26468 680.81687 L515.40698 700.73115 L521.77973 714.61264 L525.72624 723.20916 L529.38666 731.18249 L535.69663 744.92722 L538.26989 750.53244 L543.20502 761.28241 L543.87019 762.73132" />
    <path d="M522.24748 712.46815 L520.30357 705.86634 L518.28032 698.99508 L517.02477 694.73105 L515.615 689.94326 L514.0573 684.65308 L511.45716 675.82261 L507.53131 662.48983 L498.29476 631.12111 L493.08478 613.42721 L487.54746 594.62166 L481.73318 574.87547 L475.69228 554.35966 L469.47513 533.24528 L459.92908 500.82547 L447.05414 457.10023 L437.5081 424.68042 L431.29095 403.56604 L425.25005 383.05024 L419.43576 363.30405 L413.89845 344.49849 L408.68846 326.80459 L403.85616 310.39338 L399.45191 295.43587 L392.92592 273.27262 L391.36822 267.98244 L389.95845 263.19465 L388.70291 258.93062 L387.60787 255.21173 L386.67966 252.05936 L384.73575 245.45755" />
    <path d="M391.30899 244.57439 L396.37848 248.8933 L401.65489 253.38849 L408.60574 259.3102 L412.66803 262.77104 L419.44891 268.54794 L429.68708 277.27026 L441.17287 287.05548 L453.77495 297.79172 L467.36201 309.36709 L496.96569 334.58769 L512.71967 348.00915 L528.9333 361.82221 L553.8283 383.03129 L587.40468 411.63639 L612.29968 432.84548 L628.51331 446.65853 L644.26729 460.07999 L659.43028 472.99798 L673.87097 485.3006 L687.45802 496.87597 L700.06011 507.6122 L708.66142 514.94001" />
    <path d="M694.41692 489.61732 L693.12658 488.10831 L687.69391 481.75498 L683.55311 476.91245 L678.56134 471.07474 L672.79259 464.32838 L666.32087 456.7599 L659.22016 448.45586 L651.56447 439.50278 L643.42779 429.9872 L634.88412 419.99566 L621.46739 404.30523 L602.8446 382.52649 L583.92583 360.40159 L565.30304 338.62285 L551.88631 322.93242 L543.34264 312.94088 L535.20597 303.4253 L527.55027 294.47222 L520.44957 286.16817 L508.20909 271.85334 L503.21732 266.01563 L492.35352 253.31076" />
    <path d="M439.083 302.42125 L435.14573 302.14891 L431.53556 301.89921 L426.88699 301.57768 L421.28309 301.19007 L414.80694 300.74213 L407.5416 300.2396 L399.57015 299.68823 L390.97566 299.09377 L377.09745 298.13385 L357.18786 296.75675 L336.28141 295.3107 L315.04267 293.84166 L294.13622 292.39561 L274.22663 291.01851 L260.34842 290.05859 L251.75393 289.46413 L243.78248 288.91276 L236.51714 288.41023 L230.04099 287.96229 L224.43709 287.57468 L219.78852 287.25315 L216.17835 287.00344 L212.24109 286.73111" />
    <path d="M231.55333 328.39231 L230.10688 327.50498 L219.37517 320.92155 L207.3128 313.52182 L183.51639 298.92379 L174.39531 293.32841 L149.77804 278.22681 L107.69453 252.41044 L86.81867 239.60403 L71.77873 230.37769 L62.20141 224.50243 L53.08032 218.90705 L44.49841 213.64243 L35.43307 208.08125" />
    <path d="M35.43307 196.30737 L42.97696 208.23374 L108.53005 311.86858 L136.2184 355.64192 L150.73885 378.59775 L225.39939 496.63083 L239.91984 519.58665 L254.02865 541.89169 L267.60819 563.36 L280.54085 583.80563 L292.70903 603.04266 L303.99509 620.88514 L311.81001 633.23997 L316.68303 640.94389 L325.55433 654.96879 L329.5232 661.24329 L336.45386 672.20019 L341.94375 680.87932 L344.11165 684.30661 L345.87525 687.09474 L348.13075 690.66053 L348.65174 691.48418" />
    <path d="M364.62241 690.85793 L369.32111 691.91841 L375.97445 693.42004 L380.30254 694.39687 L385.26507 695.51689 L390.83717 696.77449 L396.99394 698.16405 L403.71051 699.67995 L410.96201 701.31659 L418.72355 703.06833 L426.97024 704.92958 L440.19554 707.91447 L459.29512 712.22517 L479.8875 716.87278 L501.77365 721.8124 L524.75451 726.99908 L548.63106 732.38792 L573.20425 737.93399 L610.93483 746.44963 L661.82281 757.93483 L699.5534 766.45047 L708.66142 768.50611" />
    <path d="M708.66142 773.07495 L695.93938 765.18929 L674.59292 751.95785 L653.85161 739.10151 L633.88838 726.72745 L614.87612 714.94285 L596.98774 703.85487 L580.39614 693.57069 L568.90746 686.44952 L555.00128 677.82988 L542.86736 670.30877 L532.67862 663.99335 L524.60796 658.99081 L514.74656 652.8783" />
    <path d="M481.3083 678.85671 L484.44924 680.4527 L487.3987 681.9514 L491.26726 683.91711 L501.6327 689.18406 L508.06508 692.45251 L523.2679 700.17746 L531.97385 704.60117 L541.37315 709.3772 L551.43357 714.48916 L562.12284 719.92065 L573.40873 725.6553 L585.25897 731.67672 L597.64133 737.96851 L610.52355 744.5143 L623.87339 751.29769 L637.65859 758.30231 L659.08215 769.18817 L688.86969 784.32398 L708.66142 794.38067" />
    <path d="M708.66142 803.06761 L704.95457 799.30531 L699.38297 793.65035 L693.46309 787.64191 L683.96934 778.00612 L670.25874 764.0904 L655.47653 749.08705 L639.7656 733.14107 L623.26883 716.3975 L606.12909 699.00134 L588.48927 681.09761 L561.40444 653.60758 L524.8746 616.53122 L497.78977 589.04118 L480.14995 571.13746 L463.01021 553.7413 L446.51344 536.99773 L430.80251 521.05175 L416.0203 506.0484 L402.30971 492.13268 L392.81595 482.49689 L386.89607 476.48845 L381.32447 470.83349 L376.119 465.55014 L371.29751 460.65652 L366.87789 456.17078 L359.31562 448.49538 L356.20871 445.34198 L353.57509 442.66896 L348.05967 437.07103" />
    <path d="M336.61536 447.13054 L340.22091 452.6148 L341.94256 455.23355 L346.30238 461.86513 L348.91721 465.84245 L351.80641 470.23711 L363.91074 488.64859 L372.07971 501.07411 L381.0426 514.70725 L390.70602 529.40595 L400.97658 545.02812 L411.76085 561.4317 L422.96544 578.47461 L434.49695 596.01478 L452.20285 622.9466 L476.08314 659.27008 L493.78904 686.20191 L505.32055 703.74208 L516.52514 720.78499 L527.30941 737.18857 L537.57997 752.81074 L547.24339 767.50944 L556.20628 781.14258 L564.37525 793.5681 L571.65687 804.64392 L576.47958 811.97958 L579.36878 816.37424 L581.98361 820.35156 L586.34343 826.98314 L588.06508 829.60188 L589.46566 831.73225 L591.25688 834.4568 L591.67063 835.08614" />
    <path d="M556.75096 883.15059 L555.98521 882.44047 L552.67011 879.36621 L550.07799 876.96242 L546.89163 874.00756 L543.13266 870.52167 L533.98326 862.03699 L528.63606 857.07827 L522.80266 851.66869 L516.50469 845.82827 L509.76374 839.57706 L502.60142 832.93509 L495.03935 825.92242 L487.09913 818.55906 L474.52704 806.90035 L456.6424 790.31506 L437.63413 772.68777 L417.67509 754.17878 L396.93813 734.94839 L375.59614 715.15693 L342.82686 684.76838 L298.63029 643.78275 L265.861 613.39421 L244.51901 593.60274 L223.78206 574.37236 L203.82302 555.86337 L184.81474 538.23607 L166.93011 521.65079 L154.35802 509.99208 L146.4178 502.62872 L131.69341 488.97408 L124.95246 482.72287 L118.65448 476.88245 L112.82109 471.47286 L102.63449 462.02633 L98.32449 458.02946 L94.56551 454.54358 L91.37916 451.58872 L84.70619 445.40055" />
    <path d="M35.43307 426.53128 L47.57861 429.95821 L58.5364 433.05 L65.10839 434.90432 L88.84456 441.6016 L97.99887 444.18454 L117.99482 449.82649 L170.13846 464.53908 L195.95199 471.82249 L223.05668 479.47022 L251.21778 487.41601 L280.20053 495.59364 L324.70172 508.14987 L384.72135 525.08471 L429.22255 537.64094 L458.2053 545.81857 L486.3664 553.76436 L513.47109 561.41209 L539.28462 568.6955 L563.57222 575.54837 L580.64532 580.36563 L591.42826 583.40809 L620.57852 591.63298 L629.13127 594.04618 L644.31469 598.33026 L650.88668 600.18458 L656.73971 601.83604 L661.84446 603.27637 L666.17158 604.49729 L672.37553 606.24777 L675.23358 607.05418" />
    <path d="M708.66142 604.44437 L696.24693 596.83366 L678.57369 585.99907 L661.40147 575.47163 L644.87344 565.33911 L629.13274 555.68926 L614.32253 546.60985 L600.58595 538.18863 L588.06616 530.51336 L576.90631 523.67181 L565.08699 516.42597 L546.23312 504.86759" />
    <path d="M524.60334 505.49751 L524.24113 515.88623 L524.01803 522.28479 L523.74909 529.99831 L523.43828 538.91246 L523.08961 548.91289 L522.70704 559.88525 L521.85619 584.28839 L521.39588 597.49048 L520.67303 618.22267 L519.66968 646.99951 L518.65039 676.23373 L517.64705 705.01057 L516.92419 725.74275 L516.46388 738.94484 L515.61303 763.34798 L515.23047 774.32034 L514.88179 784.32077 L514.57098 793.23492 L514.30204 800.94845 L514.07895 807.34701 L513.78625 815.74184 L513.71673 817.73573" />
    <path d="M469.65048 748.03499 L470.696 746.76042 L473.72073 743.07302 L477.45284 738.52327 L482.25842 732.66487 L488.0516 725.60251 L494.7465 717.44089 L502.25723 708.28469 L510.49793 698.2386 L528.8257 675.89555 L538.74101 663.80797 L554.31175 644.82598 L575.92434 618.47845 L597.88045 591.71216 L619.49305 565.36463 L635.06378 546.38264 L654.42208 522.78328 L663.30686 511.95201 L679.0583 492.74972 L685.75319 484.5881 L691.54637 477.52574 L696.35195 471.66734 L700.08406 467.11759 L704.15432 462.15562" />
    <path d="M708.66142 451.37335 L694.51293 450.03647 L680.60994 448.72277 L666.1457 447.35605 L635.67831 444.47719 L611.6238 442.20429 L578.17816 439.04401 L543.42898 435.76057 L507.66593 432.38132 L452.75402 427.19271 L378.69324 420.19472 L288.01828 411.62686 L253.2691 408.34341 L219.82346 405.18314 L180.29084 401.44771 L165.30156 400.03137 L150.83732 398.66465 L136.93433 397.35096 L123.62879 396.09372 L110.95693 394.89636 L98.95494 393.76229 L87.65905 392.69495 L67.33035 390.77409 L43.03821 388.47873 L35.43307 387.76012" />
    <path d="M35.43307 348.94216 L46.52822 356.87429 L50.7131 359.86614 L60.38155 366.77829 L65.82774 370.67187 L74.70942 377.02155 L87.78339 386.36837 L102.12801 396.6236 L117.59379 407.68037 L134.03124 419.43181 L151.29087 431.77104 L169.2232 444.59119 L187.67874 457.78539 L216.01605 478.04426 L254.23514 505.36779 L282.57246 525.62666 L301.028 538.82086 L318.96032 551.64101 L336.21996 563.98024 L352.65741 575.73168 L368.12318 586.78844 L382.4678 597.04368 L395.54177 606.3905 L404.42346 612.74018 L409.86965 616.63376 L419.53809 623.54591 L423.72298 626.53776 L430.70064 631.52622 L433.45605 633.49611 L435.69759 635.09863 L439.15216 637.56837 L439.22652 637.62153" />
    <path d="M473.7798 614.22455 L480.15289 620.70063 L483.19605 623.79297 L486.7861 627.44103 L490.90241 631.62385 L495.52433 636.32046 L500.63123 641.50989 L512.21742 653.28331 L518.65544 659.82536 L525.49588 666.77634 L540.30151 681.82122 L552.30862 694.02236 L569.38952 711.37928 L587.54357 729.82669 L626.41071 769.3219 L646.7936 790.03417 L678.09024 821.83655 L708.66142 852.90174 L705.76035 847.62333 L695.54878 829.70757 L685.03928 811.2691 L668.9026 782.95798 L647.13873 744.77421 L631.00205 716.46309 L620.49255 698.02462 L610.28098 680.10887 L600.45249 662.86519 L591.09218 646.44293 L582.2852 630.99145 L574.11666 616.6601 L566.67168 603.59821 L560.03541 591.95515 L555.64012 584.2438 L550.6239 575.44305 L548.50151 571.71942 L546.65047 568.47184 L545.0814 565.71898 L543.80496 563.47951 L541.79541 559.95385" />
    <path d="M573.96694 553.94594 L571.48516 552.14542 L566.09797 548.23705 L557.90783 542.29515 L552.82536 538.60784 L540.81301 529.89296 L533.9341 524.90235 L510.11219 507.61969 L501.19477 501.15016 L491.83142 494.3571 L482.04763 487.25902 L455.91594 468.30064 L409.96451 434.96315 L385.51087 417.22218 L360.34376 398.96359 L321.70124 370.92867 L269.58332 333.11743 L205.77368 286.82392 L181.32005 269.08295 L135.36862 235.74546 L119.41568 224.1717 L99.45314 209.68899 L90.08979 202.89594 L72.72635 190.29887 L57.35046 179.14375 L50.47155 174.15314 L44.16596 169.57848 L35.43307 163.24282" />
    <path d="M35.43307 167.04655 L46.09063 168.06675 L68.81191 170.24177 L76.07227 170.93677 L83.91087 171.68713 L101.21516 173.3436 L115.51121 174.7121 L136.15714 176.68845 L158.41672 178.81927 L182.07482 181.08396 L206.91627 183.46194 L232.72592 185.93259 L259.28861 188.47533 L395.86727 201.54945 L448.23961 206.56284 L473.08106 208.94081 L496.73915 211.2055 L518.99874 213.33632 L539.64467 215.31267 L571.24501 218.33764 L579.0836 219.088 L599.02243 220.99666 L609.06524 221.95802 L620.3833 223.04145 L621.33637 223.13269" />
    <path d="M632.12282 235.49349 L629.17452 236.36449 L626.20346 237.24221 L605.36214 243.39921 L595.62578 246.27556 L572.71854 253.04288 L546.06455 260.91709 L531.64475 265.17703 L509.0003 271.86672 L477.56919 281.15219 L445.63852 290.58525 L414.20741 299.87072 L391.56296 306.56041 L350.48916 318.69456 L338.50475 322.23503 L327.58192 325.46188 L317.84556 328.33823 L297.00424 334.49524 L291.63812 336.08051 L291.08489 336.24395" />
    <path d="M314.41053 317.18464 L313.2573 315.62404 L311.276 312.94287 L308.40188 309.05349 L304.70107 304.0454 L300.23971 298.0081 L295.08393 291.03108 L282.95366 274.61589 L276.11144 265.35671 L268.83933 255.51579 L261.20349 245.18265 L249.21237 228.95577 L199.01586 161.02775 L187.02474 144.80087 L172.11679 124.62681 L158.92836 106.77967 L147.98852 91.97542 L143.52716 85.93812 L133.8177 72.79888" />
    <path d="M115.23283 67.30984 L143.80249 69.03566 L246.52317 75.24073 L292.13273 77.99588 L313.86605 79.30873 L320.70239 79.7217" />
    <path d="M387.18939 61.88545 L338.44128 67.30222 L306.34179 70.86904 L289.63873 72.72504 L243.18811 77.88652 L222.78974 80.15313 L208.79113 81.70862" />
    <path d="M217.38984 137.81107 L218.30675 150.40925 L218.59694 154.39639 L219.0986 161.28914 L220.79111 184.54398 L222.92591 213.87574 L226.75371 266.469 L229.58685 305.39588 L231.79318 335.71047 L234.7689 376.59635 L236.97522 406.91094 L239.80837 445.83782 L242.432 481.88616 L244.75303 513.77661 L246.67832 540.22983 L247.46347 551.01768 L247.96513 557.91043 L248.50841 565.37496 L249.03053 572.54882 L249.17223 574.49574" />
    <path d="M221.93125 592.82394 L222.19619 592.09308 L226.64294 579.8262 L228.13412 575.7126 L229.80846 571.09372 L234.74662 557.47125 L239.40924 544.60885 L244.64005 530.17904 L250.37924 514.34681 L256.567 497.27715 L263.14352 479.13505 L270.04899 460.0855 L284.60754 419.92401 L295.94512 388.64797 L311.23634 346.46535 L322.57392 315.1893 L329.95786 294.81983 L337.13247 275.02782 L344.03794 255.97827 L350.61446 237.83617 L356.80222 220.76651 L362.54141 204.93428 L367.77222 190.50447 L372.43485 177.64207 L375.52296 169.12313 L377.373 164.01959 L380.53852 155.28712 L381.83906 151.69943 L382.94148 148.65827 L383.83831 146.18427 L385.25021 142.28938" />
    <path d="M370.70759 175.33064 L385.53737 177.17936 L392.35146 178.02883 L400.22616 179.01051 L409.06048 180.11182 L418.75339 181.32017 L451.97362 185.4615 L470.28831 187.74466 L495.70959 190.91376 L521.53492 194.13322 L546.9562 197.30231 L576.93353 201.03937 L588.04061 202.42401 L598.49111 203.7268 L631.70713 207.86761 L637.35958 208.57226 L646.53691 209.71633" />
    <path d="M658.55854 195.71631 L652.47913 194.99741 L646.90477 194.33824 L631.07425 192.46626 L621.07462 191.28379 L609.85644 189.95722 L597.54797 188.50173 L570.17325 185.26464 L555.36353 183.51337 L532.10678 180.76323 L499.82577 176.94596 L467.03169 173.06802 L434.75068 169.25075 L411.49392 166.50061 L396.68421 164.74934 L369.30949 161.51224 L357.00102 160.05675 L327.1304 156.52451 L319.95268 155.67574 L308.29892 154.29767" />
    <path d="M300.67416 173.24035 L299.79426 176.95314 L299.23536 179.31147 L297.73784 185.63039 L296.80854 189.55165 L295.20201 196.33052 L292.68764 206.94013 L289.7819 219.20115 L286.52207 232.9563 L282.94541 248.0483 L274.99073 281.61374 L270.68726 299.77263 L266.21605 318.63927 L254.54883 367.87011 L233.35214 457.31133 L228.88093 476.17797 L216.62278 527.9023 L213.04612 542.9943 L206.88055 569.01047 L202.75965 586.39895 L200.33283 596.63913 L198.89403 602.71025" />
    <path d="M211.97345 600.52729 L213.02545 600.64888 L214.86475 600.86148 L221.14088 601.58691 L225.51834 602.09289 L230.68248 602.68979 L236.60361 603.37419 L250.59812 604.99176 L258.61213 605.91807 L267.26438 606.91815 L286.3649 609.1259 L296.75379 610.32671 L324.93391 613.58394 L349.50409 616.42391 L375.61794 619.4423 L403.03798 622.61168 L431.52671 625.90458 L460.84666 629.29355 L505.8656 634.49711 L566.58352 641.51525 L611.60245 646.71881 L640.9224 650.10779 L669.41113 653.40069 L696.83117 656.57006 L708.66142 657.93747" />
    <path d="M708.66142 646.17338 L698.51804 634.12437 L671.41781 601.93282 L651.32451 578.06459 L638.23814 562.51968 L625.52276 547.41546 L613.28438 532.87785 L601.62898 519.03275 L590.66257 506.00609 L580.49115 493.92376 L571.22072 482.91169 L562.95727 473.09579 L557.48428 466.59459 L554.20551 462.69983 L551.23811 459.17495 L540.24493 446.11648" />
    <path d="M524.00643 428.66236 L520.58841 427.06247 L518.41731 426.04623 L515.7485 424.79702 L508.99012 421.63359 L492.98215 414.14064 L481.69456 408.85718 L469.03147 402.92989 L455.13766 396.42653 L440.15792 389.41487 L407.51984 374.13776 L390.15107 366.00785 L372.27553 357.64073 L344.82877 344.79356 L307.81079 327.46632 L280.36403 314.61914 L262.4885 306.25203 L245.11973 298.12212 L228.40251 290.29719 L212.48164 282.84501 L159.65742 258.11924 L149.89012 253.5474 L143.64945 250.62629 L136.89107 247.46285 L128.63314 243.59751" />
    <path d="M126.50935 208.22977 L138.10394 217.83653 L142.5245 221.49921 L147.59307 225.69879 L153.28422 230.41422 L159.57254 235.62444 L166.43262 241.30839 L173.83905 247.44503 L190.18933 260.99213 L199.08234 268.36048 L208.42006 276.09729 L228.32796 292.59207 L244.23723 305.77378 L314.44959 363.94857 L339.54782 384.74382 L468.59659 491.6678 L493.69481 512.46306 L518.08152 532.66878 L541.5534 552.11652 L563.90717 570.63785 L589.96733 592.23012 L599.72434 600.31434 L609.06206 608.05115 L617.95508 615.4195 L626.37798 622.39833 L634.30535 628.9666 L641.71178 635.10323 L648.57187 640.78719 L654.86019 645.99741 L660.55133 650.71283 L665.6199 654.91242 L670.04046 658.5751 L673.78762 661.67982 L679.16007 666.13119 L681.63505 668.18185" />
    <path d="M678.95185 682.28197 L679.54432 684.27329 L682.03877 692.6573 L683.94005 699.04762 L686.23206 706.7512 L688.88082 715.65386 L691.85236 725.6414 L695.11271 736.59962 L702.36389 760.9713 L706.28678 774.15638 L708.66142 782.1377 L681.52545 775.00531 L653.78592 768.13267 L627.36779 761.58741 L602.51132 755.42907 L585.03834 751.10003 L563.4929 745.76202 L553.53856 743.29577 L544.16983 740.97461 L535.41676 738.80598 L513.15181 733.2897 L507.16168 731.80561 L501.93737 730.51126 L497.5089 729.41408 L493.90631 728.52151 L491.15964 727.84101 L488.23465 727.11632" />
    <path d="M513.2415 714.68591 L512.91382 714.21916 L509.73544 709.69183 L506.52066 705.11264 L502.3812 699.21632 L497.39104 692.10826 L491.62416 683.89381 L485.15453 674.67835 L470.40289 653.66587 L453.72794 629.91378 L440.31555 610.80893 L421.69878 584.29088 L402.78611 557.35136 L384.16935 530.83331 L370.75695 511.72846 L362.21605 499.56265 L354.082 487.97637 L346.42878 477.07499 L339.33037 466.96389 L332.86073 457.74843 L327.09385 449.53398 L322.10369 442.42592 L317.96423 436.5296 L311.24339 426.95632" />
    <path d="M295.21583 409.21881 L296.48901 408.01442 L301.1803 403.57661 L304.71716 400.23087 L310.56917 394.69507 L325.77653 380.30942 L334.92274 371.65743 L344.95786 362.16455 L355.77731 351.92971 L367.27652 341.05185 L379.35091 329.6299 L398.31218 311.69318 L424.63095 286.79653 L451.36803 261.50417 L477.68679 236.60751 L496.64807 218.67079 L508.72246 207.24884 L520.22167 196.37098 L531.04112 186.13615 L541.07624 176.64327 L550.22245 167.99127 L565.42981 153.60562 L571.28182 148.06982 L574.81867 144.72408 L578.31441 141.41723 L579.50997 140.28627 L580.78315 139.08188" />
    <path d="M557.36049 178.71469 L554.02323 182.57339 L550.96322 186.11151 L542.27314 196.15937 L536.7839 202.50629 L516.58431 225.86198 L508.84186 234.81414 L500.71215 244.21408 L470.225 279.46472 L452.22286 300.27961 L434.50238 320.76884 L421.73571 335.53024 L398.57879 362.30533 L391.82212 370.11769 L380.17472 383.58495 L375.4248 389.07702 L368.42463 397.17094 L366.31518 399.60998 L365.08737 401.02963" />
    <path d="M352.62621 350.5362 L353.10553 351.91162 L353.92903 354.27465 L358.51607 367.43727 L360.65899 373.5864 L363.06303 380.48486 L365.70073 388.05378 L368.54458 396.21428 L373.13678 409.39169 L386.64252 448.14666 L393.67026 468.31292 L407.176 507.06789 L411.7682 520.2453 L417.24975 535.97472 L419.6538 542.87318 L421.79671 549.02231 L426.38376 562.18493 L427.20725 564.54796 L427.68657 565.92338" />
    <path d="M468.43427 551.5387 L471.60501 559.83888 L474.19998 566.63183 L476.59617 572.90444 L480.34646 582.72171 L484.68048 594.06705 L489.54264 606.79493 L494.87736 620.75983 L500.62903 635.8162 L506.74206 651.81853 L513.16086 668.62128 L523.24076 695.00784 L537.23194 731.6331 L551.44549 768.84048 L565.43666 805.46574 L575.51657 831.85229 L581.93536 848.65504 L588.0484 864.65737 L593.80007 879.71374 L599.13478 893.67864 L603.99695 906.40652 L612.08125 927.56913 L615.86353 937.47016 L617.07241 940.63469 L618.93076 945.49936 L620.24316 948.93488" />
    <path d="M708.66142 949.51912 L706.91351 948.65553 L681.42302 936.0615 L659.19792 925.08079 L635.57649 913.4102 L610.77354 901.15586 L585.00389 888.42391 L558.48236 875.32047 L517.76023 855.20097 L462.83749 828.06541 L422.11535 807.94591 L395.59383 794.84248 L345.02122 769.85618 L321.39979 758.18559 L299.1747 747.20489 L283.55146 739.48594 L273.6842 734.61085 L264.28687 729.96793 L255.38632 725.57046 L247.00939 721.43169 L231.93383 713.98334 L225.28891 710.70029 L219.27502 707.72902 L209.24777 702.77488 L202.06691 699.22705 L196.99566 696.72151" />
    <path d="M160.97664 726.66037 L164.9274 727.71396 L168.63731 728.70332 L173.5033 730.00098 L179.48479 731.59612 L186.54123 733.47793 L194.63205 735.63559 L203.71669 738.05828 L213.75458 740.73518 L224.70516 743.65548 L236.52786 746.80836 L249.18213 750.18299 L262.62739 753.76857 L276.82309 757.55428 L291.72865 761.52929 L307.30353 765.68279 L323.50714 770.00397 L340.29893 774.482 L357.63833 779.10606 L384.58548 786.29232 L422.05306 796.28417 L460.98094 806.66544 L501.04461 817.34961 L562.55986 833.75448 L645.52668 855.88006 L707.04193 872.28493 L708.66142 872.71681" />
    <path d="M708.66142 883.77275 L685.48828 875.47563 L609.26807 848.18504 L552.75506 827.9506 L515.94924 814.77231 L480.18686 801.96762 L445.76603 789.64327 L421.01014 780.77944 L405.08073 775.07593 L389.65439 769.55254 L374.76841 764.22263 L360.46004 759.09953 L346.76655 754.19658 L333.72521 749.52714 L321.37327 745.10454 L309.74801 740.94213 L298.88669 737.05324 L288.82658 733.45123 L279.60494 730.14943 L271.25904 727.16118 L263.82614 724.49984 L257.34351 722.17874 L251.84841 720.21122 L243.96988 717.39032 L240.34038 716.09078" />
    <path d="M244.37191 686.08536 L245.70114 686.72425 L248.02516 687.84129 L255.95526 691.65286 L261.48633 694.31135 L268.01139 697.44761 L275.49294 701.04359 L283.89347 705.08128 L293.17548 709.54265 L303.30144 714.40966 L314.23385 719.66429 L325.9352 725.28851 L338.36799 731.26429 L351.4947 737.5736 L379.67985 751.12071 L394.66327 758.32244 L410.19057 765.78559 L426.22426 773.49214 L451.14219 785.46886 L485.78832 802.12142 L521.78479 819.42301 L558.83152 837.22941 L615.71445 864.57001 L692.43357 901.44482 L708.66142 909.24469" />
    <path d="M708.66142 903.88505 L689.60976 893.71909 L673.64975 885.20284 L648.84632 871.96774 L614.35938 853.56552 L578.52832 834.44608 L541.65181 814.76879 L485.03026 784.55555 L408.66367 743.80636 L352.04212 713.59312 L315.16561 693.91584 L279.33455 674.79639 L244.84761 656.39418 L220.04418 643.15907 L204.08417 634.64282 L188.62821 626.39553 L173.71364 618.43711 L159.37779 610.78751 L145.658 603.46664 L132.59161 596.49441 L120.21595 589.89077 L108.56837 583.67562 L97.68619 577.8689 L78.36741 567.5604 L70.00548 563.09848 L56.06322 555.65889 L46.07869 550.33115 L39.02744 546.56861" />
    <path d="M35.43307 542.66989 L42.06316 546.76662 L48.78761 550.92165 L83.60808 572.43719 L94.1253 578.93577 L105.29994 585.84057 L117.09828 593.13076 L129.4866 600.78549 L142.4312 608.78395 L155.89836 617.10529 L169.85436 625.7287 L184.2655 634.63333 L206.66183 648.472 L237.80191 667.71343 L270.15568 687.7048 L303.45342 708.27945 L354.58002 739.87054 L423.53546 782.47805 L474.66205 814.06913 L507.9598 834.64378 L571.45365 873.87658 L593.84998 887.71526 L608.26112 896.61989 L635.68428 913.56464 L648.62887 921.56309 L661.0172 929.21783 L672.81554 936.50801 L694.50739 949.91139 L708.66142 958.65715" />
    <path d="M708.66142 960.04964 L685.03424 951.61683 L573.77661 911.90775 L491.28531 882.46569 L437.56035 863.29066 L398.24235 849.25763 L372.59698 840.10451 L322.91091 822.371 L298.97901 813.82944 L275.72705 805.53056 L253.20944 797.49378 L231.48056 789.7385 L210.59483 782.28415 L190.60662 775.15014 L171.57034 768.35588 L153.54039 761.92079 L136.57115 755.86428 L120.71703 750.20577 L106.03242 744.96467 L92.57171 740.16039 L80.38931 735.81236 L69.53961 731.93998 L52.05587 725.69984 L45.53064 723.37091 L40.55569 721.5953 L37.18541 720.39241 L35.43307 719.76698" />
    <path d="M36.41073 684.44228 L39.44649 685.60249 L42.29718 686.69197 L56.05454 691.94975 L62.27152 694.32575 L69.25215 696.9936 L76.96526 699.9414 L85.37968 703.15721 L94.46423 706.62915 L104.18776 710.34528 L114.51909 714.2937 L125.42706 718.4625 L136.88048 722.83977 L148.8482 727.41359 L161.29905 732.17204 L180.81299 739.62987 L208.2316 750.1087 L237.02166 761.11168 L266.93382 772.54349 L297.71872 784.30885 L344.98699 802.37382 L408.73864 826.73839 L456.00691 844.80336 L486.79181 856.56871 L516.70397 868.00053 L545.49403 879.0035 L572.91264 889.48233 L592.42658 896.94016 L604.87743 901.69862 L616.84515 906.27244 L639.20654 914.8185 L668.34596 925.95499 L676.76037 929.17081 L684.47348 932.1186 L691.45411 934.78645 L707.68943 940.99126 L708.66142 941.36273" />
    <path d="M697.42188 1016.92913 L691.86172 1012.81335 L678.99304 1003.2876 L665.65724 993.41607 L651.88653 983.22261 L630.48548 967.38097 L600.72926 945.3546 L569.81329 922.46974 L537.99528 898.91718 L489.14074 862.7537 L423.24966 813.97931 L374.39512 777.81584 L342.57711 754.26328 L311.66114 731.37842 L281.90491 709.35205 L260.50387 693.51041 L246.73316 683.31695 L233.39736 673.44542 L220.52868 663.91967 L208.15933 654.76354 L196.32154 646.00088 L185.04752 637.65554 L174.36948 629.75136 L154.93022 615.36189 L146.23342 608.92428 L138.26147 603.02322 L124.62096 592.92614 L119.01684 588.77782 L114.26642 585.26143 L110.40192 582.40082 L104.31793 577.89728" />
    <path d="M165.08893 558.14205 L173.72474 568.19968 L177.01724 572.03427 L180.79238 576.43096 L189.71486 586.82246 L194.82434 592.77318 L200.34076 599.19784 L206.24518 606.07438 L212.51867 613.38076 L226.09718 629.19487 L237.10911 642.01984 L252.77432 660.2642 L269.42372 679.65481 L286.90591 700.01532 L305.06947 721.16938 L323.76298 742.94065 L352.46569 776.36906 L391.17761 821.45461 L419.88032 854.88302 L438.57383 876.65429 L456.73739 897.80835 L474.21958 918.16885 L506.53419 955.80383 L517.54612 968.6288 L531.12463 984.44291 L537.39812 991.74929 L543.30254 998.62583 L548.81896 1005.05048 L553.92844 1011.00121 L559.01835 1016.92913" />
    <path d="M551.42277 1016.92913 L544.35065 1004.58949 L534.38439 987.20008 L523.63918 968.45153 L512.21888 948.52506 L500.22735 927.60189 L487.76845 905.86324 L474.94603 883.49032 L455.25802 849.13812 L428.70442 802.80663 L409.01641 768.45442 L396.194 746.08151 L383.73509 724.34286 L371.74356 703.41969 L360.32326 683.49322 L349.57805 664.74467 L339.61179 647.35526 L332.71077 635.31415 L328.4076 627.80586 L324.35759 620.73928 L317.06898 608.02191 L310.9488 597.34324 L306.1009 588.8845 L300.17735 578.54891" />
    <path d="M333.19762 619.88491 L339.84618 621.83888 L344.06929 623.08003 L349.26052 624.60571 L362.40656 628.46926 L370.29096 630.78644 L379.00267 633.34677 L398.7672 639.15546 L409.74962 642.38314 L421.41853 645.81257 L460.19216 657.20793 L474.25499 661.34093 L488.82829 665.62394 L503.87686 670.04664 L527.26381 676.91994 L559.78127 686.47665 L593.56609 696.40583 L628.33665 706.62472 L681.72466 722.31517 L708.66142 730.23174" />
    <path d="M708.66142 729.10902 L688.94981 726.94122 L655.97506 723.31481 L586.4556 715.66937 L532.3168 709.71543 L459.29875 701.68523 L405.15996 695.73128 L369.90043 691.8536 L335.64049 688.08584 L302.66575 684.45943 L271.2618 681.00576 L248.91148 678.54777 L234.65088 676.97946 L220.94363 675.47199 L207.82543 674.02931 L195.33198 672.65534 L183.49898 671.354 L172.36212 670.12921 L152.31964 667.92503 L135.49014 666.0742 L128.36951 665.2911 L122.15923 664.60813 L116.89499 664.02919 L112.6125 663.55822 L109.34745 663.19914 L105.87044 662.81676" />
    <path d="M266.13677 684.01576 L265.95678 677.86637 L265.4522 660.62792 L265.13766 649.88153 L264.77415 637.46245 L264.36634 623.52998 L263.9189 608.24342 L263.43648 591.76208 L262.3854 555.85227 L261.82605 536.74242 L261.25038 517.075 L260.36647 486.87691 L259.17433 446.14815 L258.29042 415.95007 L257.71475 396.28265 L257.1554 377.17279 L256.10431 341.26298 L255.6219 324.78164 L254.76665 295.56261 L254.40314 283.14353 L254.08859 272.39714 L253.66997 258.09503 L253.40403 249.0093" />
    <path d="M301.89647 262.75254 L311.03342 266.92001 L323.44509 272.58112 L331.28514 276.15706 L340.08057 280.16877 L349.73083 284.57037 L360.13535 289.31599 L371.19355 294.35976 L382.80487 299.65583 L401.03895 307.97261 L477.36945 342.78786 L495.60353 351.10464 L507.21485 356.4007 L518.27305 361.44448 L528.67757 366.1901 L538.32782 370.5917 L547.12326 374.6034 L554.96331 378.17934 L561.74741 381.27365 L567.37498 383.84045 L571.74546 385.83388 L576.31289 387.91714 L576.51193 388.00792" />
    <path d="M552.31043 365.31247 L545.50111 363.98283 L538.41386 362.59893 L534.0158 361.74013 L529.07752 360.77584 L517.66847 358.54803 L500.76115 355.24659 L485.33349 352.23407 L468.40642 348.92878 L450.15636 345.36514 L430.75969 341.57761 L410.39282 337.60063 L389.23215 333.46864 L367.45408 329.2161 L334.01522 322.68659 L288.91558 313.88012 L255.47672 307.35061 L212.53798 298.96608 L192.17111 294.9891 L172.77444 291.20157 L154.52438 287.63794 L137.59731 284.33264 L122.16965 281.32012 L105.26233 278.01868 L99.30975 276.85633 L93.85329 275.79087 L84.51694 273.96779 L80.68115 273.21878 L77.4297 272.58388 L70.62037 271.25424" />
    <path d="M66.46198 205.4412 L74.19685 208.13285 L87.24329 212.67287 L99.05094 216.7818 L105.81262 219.13479 L113.11282 221.67518 L120.92649 224.39425 L129.22858 227.28329 L161.77057 238.60755 L182.50127 245.82161 L204.53441 253.4889 L227.66963 261.53971 L251.70655 269.90429 L276.44479 278.51293 L314.4288 291.73095 L365.65858 309.55836 L403.64259 322.77638 L428.38082 331.38502 L452.41774 339.7496 L497.58611 355.4677 L537.54467 369.37285 L550.8588 374.00602 L566.97455 379.61413 L574.27475 382.15452 L587.23457 386.66439 L592.84409 388.61644 L602.19711 391.8712 L608.89514 394.20204 L612.73779 395.53924 L613.6254 395.84811" />
    <path d="M677.1402 404.63308 L676.89974 412.55394 L676.36676 430.11026 L676.13529 437.73506 L675.88132 446.10092 L675.6075 455.12065 L675.16534 469.68552 L674.53102 490.58019 L673.86494 512.52104 L673.18827 534.81062 L672.52219 556.75147 L671.88788 577.64614 L671.44572 592.21102 L671.17189 601.23074 L670.91792 609.5966 L670.68645 617.22141 L670.15348 634.77772 L669.91825 642.52604 L669.91302 642.69859" />
    <path d="M698.51368 673.26413 L702.62232 675.71106 L708.66142 679.30771" />
    <path d="M708.66142 707.84446 L686.881 705.86547 L663.36423 703.72871 L640.51416 701.65252 L618.52126 699.65422 L597.57601 697.75111 L577.86891 695.9605 L559.59044 694.2997 L542.93108 692.78601 L531.61368 691.7577 L524.67393 691.12714 L518.24611 690.5431 L512.35402 690.00774 L507.02147 689.52322 L502.27229 689.0917 L498.13026 688.71535 L491.76296 688.13681 L489.5853 687.93895 L487.26626 687.72824" />
    <path d="M464.66659 683.59903 L466.95863 683.94177 L475.40409 685.20465 L484.19177 686.5187 L489.46222 687.30681 L501.63867 689.1276 L508.4976 690.15324 L519.68321 691.82586 L536.14858 694.28798 L554.21421 696.9894 L573.69182 699.90195 L594.39316 702.9975 L616.12996 706.24787 L638.71395 709.62494 L661.95688 713.10053 L697.64492 718.43709 L708.66142 720.08442" />
    <path d="M708.66142 711.62552 L698.03906 690.98669 L682.87806 661.52944 L667.95426 632.53306 L657.20245 611.6427 L650.35578 598.33989 L643.83526 585.67077 L637.7002 573.75057 L632.00988 562.6945 L618.20042 535.86325 L614.8821 529.41587 L612.30502 524.40871 L609.49445 518.94789" />
    <path d="M574.62125 519.91192 L571.2385 519.1104 L566.44854 517.97544 L553.58364 514.92716 L543.91715 512.63674 L532.74604 509.9898 L520.21363 507.02031 L506.46321 503.76221 L491.63807 500.24947 L475.8815 496.51603 L459.33681 492.59584 L433.35549 486.4397 L397.29272 477.8948 L360.65676 469.2141 L324.59399 460.6692 L298.61267 454.51306 L282.06797 450.59287 L266.31141 446.85943 L251.48627 443.34669 L225.20343 437.1191 L204.36583 432.18174 L191.50093 429.13346 L188.85966 428.50762 L183.32822 427.19698" />
    <path d="M135.60068 420.29904 L142.82809 424.62069 L150.35049 429.11872 L160.26008 435.04418 L166.05157 438.50721 L179.1909 446.3639 L194.24935 455.36813 L206.68998 462.80703 L224.65637 473.55006 L244.02698 485.13276 L264.6146 497.44316 L286.23199 510.36932 L308.69192 523.79928 L415.16791 587.46679 L450.6599 608.6893 L473.77514 622.5111 L496.23507 635.94106 L517.85246 648.86722 L538.44008 661.17762 L557.8107 672.76032 L575.77708 683.50335 L588.21771 690.94225 L595.97512 695.58081 L603.27616 699.94648 L610.09742 704.02526 L616.41549 707.80317 L632.11657 717.19166 L644.58695 724.64834 L646.86639 726.01134" />
    <path d="M619.47576 725.62759 L618.17096 723.49937 L616.94571 721.50089 L613.36316 715.65749 L611.03267 711.85628 L605.36022 702.60409 L602.04505 697.19682 L594.52383 684.92915 L590.34457 678.11247 L585.90407 670.86968 L578.7828 659.25437 L568.49848 642.47988 L545.62557 605.17249 L533.25134 584.98921 L520.39482 564.01928 L507.16319 542.43751 L486.84686 509.30007 L459.44581 464.60695 L439.12948 431.46951 L425.89784 409.88774 L413.04133 388.91781 L400.66709 368.73453 L388.88232 349.5127 L377.79419 331.42713 L367.50987 314.65265 L360.3886 303.03733 L355.9481 295.79455 L347.86421 282.60913 L340.93245 271.30293 L335.26 262.05074 L326.81691 248.27943" />
    <path d="M360.20001 278.08099 L361.12973 277.522 L375.4979 268.88323 L382.51325 264.66529 L397.81113 255.46753" />
    <path d="M367.91592 279.64684 L367.42969 283.35106 L367.12084 285.70394 L365.77978 295.92048 L364.89202 302.68369 L363.50257 313.26881 L361.89686 325.50151 L358.11902 354.28204 L355.98808 370.51604 L353.72326 387.76998 L351.34516 405.88694 L348.87437 424.71001 L346.3315 444.08227 L342.42707 473.82717 L337.16109 513.94469 L333.25666 543.68959 L330.71378 563.06186 L328.24299 581.88492 L325.86489 600.00188 L323.60007 617.25582 L321.46914 633.48982 L319.49268 648.54697 L317.69129 662.27035 L316.08558 674.50306 L314.69614 685.08817 L313.80837 691.85139 L312.46731 702.06792 L311.67223 708.12502" />
    <path d="M408.88814 762.63447 L408.93075 762.03452 L409.76202 750.32936 L410.94911 733.61405 L411.69896 723.05552 L412.54018 711.21034 L415.51592 669.30919 L416.62647 653.67174 L418.37043 629.11513 L420.7911 595.02988 L423.25024 560.40289 L425.67091 526.31765 L427.41488 501.76103 L428.52542 486.12358 L429.58306 471.23104 L430.57818 457.21885 L432.34238 432.37725 L433.09223 421.81872 L433.74108 412.6823 L435.15321 392.7983" />
    <path d="M489.61969 341.40832 L499.72122 343.51432 L509.7267 345.6003 L515.74433 346.85488 L522.3468 348.23138 L529.46532 349.71548 L557.45058 355.54994 L574.76666 359.16006 L592.35797 362.82755 L609.67405 366.43767 L626.16447 369.87565 L637.65931 372.27213 L644.77783 373.75623 L657.39793 376.38731 L662.7619 377.50561 L674.24384 379.8994 L676.30514 380.32915 L677.50494 380.57929" />
    <path d="M708.66142 442.32237 L706.81081 446.68202 L703.19186 455.20752 L701.02138 460.32072 L698.62315 465.97046 L696.00686 472.13389 L693.18221 478.78819 L690.15889 485.91053 L686.94658 493.47807 L681.79497 505.6142 L674.35517 523.14084 L666.33388 542.03734 L657.80864 562.12106 L648.85698 583.20934 L629.9845 627.66901 L580.76812 743.61271 L571.1962 766.16218 L561.89564 788.07238 L552.94398 809.16066 L544.41874 829.24438 L536.39745 848.14088 L528.95765 865.66752 L517.57041 892.49353 L512.12947 905.31126 L509.73124 910.961 L502.51273 927.96633 L500.4638 932.79319 L499.51989 935.01684" />
    <path d="M643.55492 788.53075 L643.38585 786.34411 L643.01886 781.59757 L642.76289 778.28697 L642.46092 774.38141 L641.72593 764.87523 L640.82776 753.25865 L640.32183 746.71509 L639.49675 736.0438 L638.28222 720.3355 L636.94965 703.10053 L635.51292 684.5185 L633.98594 664.769 L632.38257 644.03166 L630.71672 622.48608 L629.00225 600.31186 L626.36981 566.26475 L622.81938 520.34475 L620.18693 486.29764 L618.47247 464.12343 L616.80661 442.57784 L615.20325 421.8405 L613.67626 402.09101 L612.23954 383.50897 L610.90697 366.274 L609.69244 350.56571 L608.86736 339.89441 L608.36142 333.35085 L607.46326 321.73427 L606.72826 312.22809 L606.42629 308.32254 L606.17032 305.01193 L605.80333 300.26539 L605.63426 298.07875" />
    <path d="M571.79523 297.14839 L571.91475 302.64892 L572.07654 310.09467 L572.24981 318.06846 L572.45868 327.68095 L572.70007 338.78964 L572.97087 351.25203 L573.26798 364.92564 L573.58833 379.66795 L573.92879 395.33649 L574.28629 411.78875 L574.84769 437.62491 L575.62694 473.4862 L576.41857 509.91747 L577.19781 545.77877 L577.75921 571.61493 L578.11671 588.06719 L578.45718 603.73572 L578.77752 618.47804 L579.07464 632.15164 L579.34544 644.61403 L579.58682 655.72272 L579.7957 665.33521 L579.96896 673.309 L580.13076 680.75475 L580.21258 684.52048 L580.25028 686.25529" />
    <path d="M581.87556 656.9378 L585.22018 660.87842 L587.34465 663.38147 L589.95614 666.45833 L593.03696 670.08814 L596.56938 674.25003 L600.5357 678.92314 L609.69918 689.71954 L614.86093 695.80111 L620.38573 702.31042 L626.25589 709.22662 L635.66989 720.31819 L649.26533 736.3363 L663.92336 753.60637 L679.50232 771.96147 L695.86052 791.23467 L708.66142 806.31666" />
    <path d="M708.66142 816.67119 L684.85786 802.74108 L650.43036 782.59371 L614.99838 761.85852 L560.5948 730.02093 L487.21963 687.08095 L432.81605 655.24336 L397.38407 634.50816 L362.95657 614.3608 L329.82056 594.96923 L305.98872 581.02257 L290.6539 572.04846 L275.80338 563.35777 L261.47304 554.97149 L247.69875 546.91062 L221.96183 531.84908 L210.07095 524.89041 L198.87963 518.34112 L188.42372 512.2222 L178.73912 506.55466 L169.86169 501.35949 L161.82732 496.65768 L154.67186 492.47023 L148.43121 488.81813 L143.14122 485.72237 L138.83778 483.20395 L132.06275 479.23912" />
    <path d="M58.65216 506.41677 L79.59095 513.61682 L85.24298 515.56034 L105.65653 522.57978 L113.52941 525.28696 L121.89441 528.16337 L135.30944 532.77628 L154.68301 539.43811 L175.57081 546.62063 L197.77093 554.2544 L221.08147 562.27 L245.30054 570.59802 L270.22625 579.16901 L308.49811 592.32924 L360.11612 610.0787 L398.38797 623.23893 L423.31368 631.80993 L447.53276 640.13794 L470.8433 648.15355 L493.04342 655.78732 L533.30479 669.63166 L546.71981 674.24458 L555.08482 677.12098 L570.31322 682.35745 L583.37125 686.84761 L594.057 690.52203 L602.16858 693.31129 L605.19597 694.35229 L609.06774 695.68365 L609.96207 695.99117" />
    <path d="M581.93924 647.78183 L582.82146 648.57722 L584.36392 649.96788 L586.64077 652.02066 L589.62714 654.71313 L597.62881 661.92732 L602.59433 666.40416 L608.16977 671.43091 L614.33025 676.98511 L621.05087 683.04432 L628.30672 689.5861 L636.07293 696.58801 L644.32459 704.02759 L653.03681 711.8824 L662.18469 720.13 L681.68786 737.71379 L697.27369 751.76576 L708.66142 762.03277" />
    <path d="M708.66142 733.78529 L698.53714 727.73952 L678.60395 715.83629 L658.08917 703.58577 L626.59002 684.77587 L584.1065 659.40658 L532.09258 628.34615 L512.15939 616.44293 L492.97395 604.98623 L474.70244 594.07529 L457.51101 583.80932 L441.56585 574.28757 L411.10654 556.09862 L395.70748 546.90297 L391.56454 544.42899 L387.95126 542.2713 L384.88841 540.4423 L378.47408 536.61195" />
    <path d="M332.04344 472.46295 L330.16469 469.26229 L327.5044 464.73017 L320.35936 452.55779 L314.99069 443.41164 L308.78638 432.84188 L294.18916 407.97385 L285.95542 393.94674 L277.20439 379.03835 L268.01564 363.38426 L258.46875 347.12004 L248.64332 330.38129 L233.55698 304.68 L213.20975 270.01615 L198.12341 244.31485 L188.29798 227.5761 L178.7511 211.31189 L169.56234 195.6578 L160.81131 180.74941 L131.77604 131.28451 L126.40737 122.13836 L114.72329 102.2332" />
    <path d="M140.27439 138.96511 L147.35556 148.14402 L158.38728 162.4438 L163.72425 169.3618 L168.8022 175.94405 L170.80542 178.54071" />
    <path d="M183.6751 143.21573 L195.53343 143.94517 L202.83714 144.39445 L211.64184 144.93605 L221.817 145.56196 L233.23211 146.26414 L259.26008 147.8652 L273.6119 148.74803 L345.19425 153.15129 L378.564 155.20397 L411.41166 157.22453 L435.07667 158.68024 L450.14635 159.60723 L478.0016 161.32069 L490.52614 162.09112 L520.9211 163.96081 L528.22482 164.41008 L533.89702 164.759 L540.08315 165.13953" />
    <path d="M576.65613 186.75183 L572.25798 188.70042 L556.77264 195.56117 L549.53842 198.76628 L541.42263 202.36196 L532.51808 206.30711 L522.91755 210.5606 L501.99978 219.82818 L485.1747 227.2825 L461.82103 237.62929 L438.09617 248.14054 L414.7425 258.48734 L397.91742 265.94166 L376.99965 275.20924 L367.39912 279.46273 L358.49457 283.40787 L336.88469 292.98209 L331.69198 295.28271 L327.65922 297.06942 L323.26107 299.01801" />
    <path d="M325.36156 349.39953 L328.67548 351.71971 L333.36799 355.00508 L348.19273 365.38433 L355.44096 370.45904 L366.38477 378.12113 L392.13285 396.14815 L406.65636 406.31651 L422.09235 417.12371 L438.30042 428.47148 L455.14021 440.26153 L472.47132 452.39557 L499.08216 471.02663 L534.97272 496.15471 L561.58356 514.78577 L578.91467 526.91981 L595.75446 538.70986 L611.96253 550.05763 L641.92202 571.03318 L655.39268 580.4644 L667.67011 589.0602 L678.61392 596.7223 L685.86215 601.79701 L690.20443 604.83717 L694.13435 607.58863 L700.68689 612.17626 L705.3794 615.46163 L708.6235 617.73292 L708.66142 617.75947" />
    <path d="M708.66142 610.65062 L705.44225 610.59768 L685.87598 610.27588 L648.56603 609.66225 L631.13931 609.37563 L614.74275 609.10596 L599.53481 608.85584 L573.3188 608.42467 L562.62768 608.24883 L548.39913 608.01482 L545.4779 607.96677 L543.10145 607.92769 L539.36014 607.86615" />
    <path d="M569.50835 603.68113 L568.83315 603.29363 L565.91002 601.61605 L563.6244 600.30433 L557.50029 596.78972 L553.69991 594.60868 L544.71778 589.45385 L536.8475 584.93711 L524.96448 578.11745 L511.63339 570.46676 L497.00667 562.0725 L481.23673 553.02216 L464.47602 543.4032 L446.87695 533.30312 L428.59195 522.80938 L409.77346 512.00947 L380.87885 495.42689 L341.90813 473.06164 L313.01352 456.47906 L294.19502 445.67915 L275.91003 435.18542 L258.31096 425.08533 L241.55024 415.46638 L197.8225 390.37108 L185.93947 383.55143 L178.06919 379.03469 L169.08706 373.87985 L161.97217 369.79663 L153.27862 364.80741" />
    <path d="M134.9461 383.16754 L141.7687 388.45604 L148.86976 393.96038 L158.22431 401.21149 L169.65561 410.07238 L176.0948 415.06368 L182.9869 420.40604 L190.30982 426.08235 L198.04145 432.07547 L219.01371 448.33197 L237.29936 462.50597 L256.73385 477.57048 L277.14044 493.3885 L298.34237 509.82303 L320.1629 526.73707 L353.66696 552.70751 L398.85455 587.73436 L432.35861 613.7048 L454.17914 630.61883 L475.38107 647.05337 L495.78766 662.87139 L515.22215 677.9359 L533.5078 692.1099 L546.3618 702.07358 L554.48006 708.3664 L562.21169 714.35952 L569.53461 720.03583 L576.42671 725.37819 L582.8659 730.36949 L588.8301 734.99259 L594.2972 739.23038 L599.24511 743.06572 L607.49501 749.46057 L610.75281 751.98583 L613.40305 754.04015 L617.57541 757.27432" />
    <path d="M706.94129 577.32666 L708.66142 578.74995" />
    <path d="M669.40948 525.06828 L667.4808 524.96086 L656.92934 524.37318 L635.46462 523.17767 L623.11444 522.48981 L609.25926 521.71813 L594.05751 520.87145 L577.66761 519.95859 L560.24797 518.98838 L522.95318 516.91119 L503.39487 515.82186 L473.36432 514.14927 L432.86152 511.89341 L402.83097 510.22082 L383.27266 509.13149 L345.97787 507.0543 L328.55823 506.08409 L312.16833 505.17123 L296.96658 504.32455 L283.1114 503.55287 L270.76122 502.86501 L253.24628 501.88949 L245.85168 501.47763 L236.81636 500.9744" />
    <path d="M265.34948 456.2827 L273.45988 456.5705 L278.26923 456.74117 L286.22669 457.02355 L295.81947 457.36396 L306.90539 457.75736 L347.69992 459.20501 L363.33634 459.75989 L379.75488 460.34252 L405.53809 461.25747 L441.32589 462.52745 L477.68249 463.81761 L513.47028 465.08759 L539.25349 466.00254 L555.67203 466.58518 L586.02055 467.66213 L599.66613 468.14637 L612.10298 468.5877 L623.1889 468.9811 L632.78169 469.32152 L640.73914 469.6039 L651.92764 470.00094 L653.65889 470.06237" />
    <path d="M532.1652 339.31447 L527.44473 336.81423 L523.11642 334.52171 L517.54316 331.56979 L503.06013 323.89874 L484.79243 314.22311 L474.48832 308.76546 L463.53682 302.96492 L452.03755 296.87424 L433.97942 287.30962 L408.91424 274.03365 L383.45067 260.54668 L340.32736 237.70609 L328.82808 231.61541 L317.87659 225.81487 L307.57248 220.35722 L289.30478 210.68159 L274.82175 203.01055 L264.92018 197.7661 L260.19971 195.26587" />
    <path d="M129.80562 312.23389 L131.81367 311.09941 L133.69931 310.03408 L139.21277 306.91917 L151.52912 299.96085 L162.19694 293.93389 L168.20607 290.53894 L192.43116 276.85259 L225.32289 258.26988 L243.45938 248.02338 L262.50304 237.26435 L302.65212 214.58149 L333.9185 196.91705 L376.08808 173.09267 L407.35446 155.42822 L427.71765 143.92372 L447.50354 132.74536 L466.5472 121.98634 L484.68369 111.73984 L517.57542 93.15713 L532.00077 85.0073 L541.80051 79.47078 L558.47746 70.04887 L567.20724 65.11684 L573.83403 61.37293 L580.20096 57.77583" />
    <path d="M444.84721 132.23152 L437.8611 140.10728 L433.55826 144.95807 L422.37664 157.56362 L415.65165 165.14502 L408.27307 173.46324 L400.31778 182.4316 L391.86268 191.96343 L382.98467 201.97202 L369.04289 217.68923 L349.69132 239.50515 L330.03218 261.66781 L310.68061 283.48373 L296.73883 299.20095 L287.86082 309.20954 L271.45043 327.70973 L264.07184 336.02795 L257.34685 343.60934 L251.35235 350.36722 L241.8624 361.06569 L236.21712 367.42987 L234.87629 368.94145" />
    <path d="M275.52703 462.64917 L275.76273 461.96241 L277.581 456.66455 L279.71881 450.43566 L284.18093 437.43446 L286.92829 429.42953 L291.07643 417.3432 L295.73005 403.78403 L300.83596 388.90705 L306.34093 372.86731 L318.33526 337.91966 L324.7182 319.32183 L331.28737 300.18137 L341.37392 270.7924 L354.97784 231.15492 L365.06438 201.76595 L371.63355 182.62549 L378.01649 164.02766 L390.01082 129.08001 L395.5158 113.04027 L400.6217 98.16329 L405.27533 84.60412 L409.42346 72.51779 L412.17082 64.51286 L413.81671 59.71725 L415.30631 55.37705 L416.63294 51.51166 L419.56862 42.95804 L420.82472 39.29815" />
  </g>
</svg>