<?xml version="1.0" standalone="no"?>
<!DOCTYPE svg PUBLIC "-//W3C//DTD SVG 1.1//EN" 
    "http://www.w3.org/Graphics/SVG/1.1/DTD/svg11.dtd">
<svg width="21cm" height="29.7cm"
    xmlns="http://www.w3.org/2000/svg" version="1.1" viewBox="0 0 744.09449 1052.3622">
  <g fill="none" stroke="black" stroke-width="0.1cm" stroke-linejoin="round" stroke-linecap="round">
    <path d="M35.43307 42.51969" />
    <path d="M35.43307 53.14961 L44.29134 53.14961" />
    <path d="M35.43307 63.18898 L53.14961 63.77953" />
    <path d="M62.00787 74.40945 L35.43307 72.89089" />
    <path d="M35.43307 82.38189 L70.86614 85.03937" />
    <path d="M79.72441 95.66929 L35.43307 91.73228" />
    <path d="M35.43307 100.98425 L88.58268 106.29921" />
    <path d="M97.44094 116.92913 L57.80798 112.60554 L35.43307 110.16464" />
    <path d="M35.43307 119.29134 L63.06325 122.51486 L106.29921 127.55906" />
    <path d="M115.15748 138.18898 L83.69019 134.31608 L68.31852 132.42418 L35.43307 128.37674" />
    <path d="M35.43307 137.4297 L50.44195 139.35941 L90.1279 144.46189 L100.10426 145.74456 L114.28444 147.56773 L124.01575 148.8189" />
    <path d="M132.87402 159.44882 L36.30841 146.5734 L35.43307 146.45669" />
    <path d="M35.43307 155.4626 L57.64795 158.51714 L84.08434 162.15215 L103.00331 164.75351 L122.02502 167.36899 L130.61079 168.54953 L141.73228 170.07874" />
    <path d="M150.59055 180.70866 L121.55518 176.60955 L89.33961 172.06147 L61.25094 168.09601 L35.43307 164.45113" />
    <path d="M35.43307 173.4252 L57.56468 176.62199 L72.25998 178.74464 L101.88414 183.02368 L137.27814 188.13615 L159.44882 191.33858" />
    <path d="M168.30709 201.9685 L155.10031 200.02224 L144.90471 198.51973 L107.54437 193.014 L92.03267 190.72806 L76.27442 188.4058 L35.43307 182.38707" />
    <path d="M35.43307 191.33858 L48.41121 193.2853 L177.16535 212.59843" />
    <path d="M186.02362 223.22835 L171.42666 221.00405 L160.15783 219.28689 L118.86483 212.99463 L101.72031 210.38213 L84.30331 207.72811 L50.83177 202.62768 L39.45083 200.89344 L35.43307 200.28121" />
    <path d="M35.43307 209.21618 L70.35683 214.61349 L106.56414 220.20916 L174.02611 230.6351 L194.88189 233.85827" />
    <path d="M203.74016 244.48819 L192.7862 242.77366 L175.41096 240.05405 L168.25133 238.93342 L160.53211 237.72519 L148.06726 235.77417 L111.40796 230.03619 L92.33219 227.05042 L73.55487 224.11136 L43.20805 219.36142 L35.43307 218.14447" />
    <path d="M35.43307 225.27973 L40.09736 224.15049 L67.01299 217.63407 L123.48046 203.963 L142.77442 199.29183 L169.88394 192.72847 L198.34945 185.83682 L227.92441 178.67657 L258.36227 171.3074 L305.09769 159.99251 L368.13066 144.7319 L445.30394 126.04784 L530.45393 105.43258 L562.05838 97.78098 L615.82928 84.76276 L653.80598 75.5684 L673.22835 70.86614 L635.10374 186.0426 L618.13525 237.3053 L603.71678 280.86424 L596.00049 304.17555 L573.89119 370.96893 L562.05838 406.71647 L549.74789 443.9071 L496.34552 605.23846 L482.10892 648.248 L422.54296 828.19989 L407.15068 874.70078 L383.81186 945.20858 L360.07161 1016.92913" />
    <path d="M35.43307 1000.70452 L48.41692 981.77543 L57.39907 968.6804 L67.01299 954.66433 L77.22785 939.77213 L99.33716 907.53908 L111.16997 890.28809 L123.48046 872.3407 L573.89119 215.68927 L596.00049 183.45622 L615.82928 154.54794 L653.80598 99.18191 L673.22835 70.86614 L149.41119 561.60011 L136.2378 573.94149 L123.48046 585.89311 L111.16997 597.4261 L99.33716 608.51157 L77.22785 629.2245 L67.01299 638.79422 L57.39907 647.80094 L48.41692 656.21579 L35.43307 668.37961" />
    <path d="M35.43307 670.97787 L47.14279 673.16157 L55.88857 674.79254 L65.24949 676.53823 L75.19554 678.39303 L96.72303 682.40762 L139.0172 690.29491 L165.41331 695.21743 L193.12973 700.38616 L221.9264 705.75635 L251.56326 711.28323 L297.0688 719.7694 L358.44301 731.21486 L403.94855 739.70102 L433.58541 745.2279 L462.38208 750.59809 L490.0985 755.76683 L516.49462 760.68934 L541.33037 765.32088 L558.78879 768.57664 L580.31627 772.59122 L590.26232 774.44603 L599.62324 776.19171 L608.36902 777.82268 L623.89511 780.71809 L630.61542 781.97133 L636.60056 783.08748 L641.82052 784.06093 L652.58926 786.06916 L655.51181 786.61417" />
    <path d="M646.65354 775.98425 L627.99785 772.50867 L622.09359 771.4087 L600.14782 767.32017 L591.52023 765.71284 L582.28581 763.99245 L551.23759 758.20813 L534.01509 754.99955 L509.51496 750.43515 L483.47555 745.58397 L456.13368 740.49014 L427.72615 735.19778 L398.48979 729.751 L353.59919 721.38782 L293.05436 710.10824 L248.16376 701.74506 L218.92739 696.29828 L190.51987 691.00592 L163.17799 685.91209 L137.13858 681.06092 L112.63845 676.49651 L95.41596 673.28793 L74.17938 669.33153 L64.36774 667.50361 L55.13332 665.78322 L35.43307 662.11304" />
    <path d="M35.43307 653.24803 L37.98697 653.72334 L54.37807 656.77391 L63.48599 658.46899 L73.16323 660.27003 L94.10889 664.16825 L111.09546 667.32964 L135.25997 671.82693 L160.94268 676.60676 L187.91 681.62568 L215.92839 686.84022 L244.76425 692.20689 L289.03991 700.44708 L348.75536 711.56079 L393.03102 719.80098 L421.86689 725.16766 L449.88527 730.38219 L476.8526 735.40111 L502.5353 740.18095 L526.69982 744.67823 L543.68639 747.83962 L574.30929 753.53888 L583.41721 755.23397 L591.92661 756.81766 L613.57176 760.84607 L619.39514 761.92986 L624.47401 762.8751 L634.95171 764.82511 L637.79528 765.35433" />
    <path d="M628.93701 754.72441 L626.13294 754.20309 L615.80076 752.28218 L610.79243 751.35105 L605.04993 750.28343 L598.60207 749.08467 L583.70541 746.31515 L575.31419 744.7551 L566.33277 743.08531 L556.78994 741.31115 L536.13519 737.47111 L519.38454 734.35691 L495.55564 729.92675 L470.22964 725.21825 L443.63686 720.27424 L416.00763 715.13754 L387.57226 709.85096 L343.91154 701.73376 L285.02547 690.78593 L241.36475 682.66872 L212.92938 677.38215 L185.30014 672.24544 L158.70736 667.30143 L133.38136 662.59294 L92.80182 655.04857 L72.14707 651.20853 L62.60424 649.43437 L53.62282 647.76459 L45.2316 646.20453 L37.45938 644.75955 L35.43307 644.38283" />
    <path d="M35.43307 635.51744 L36.93178 635.79577 L620.07874 744.09449" />
    <path d="M611.22047 733.46457 L608.49539 732.95904 L598.45426 731.09634 L593.58701 730.19343 L588.00627 729.15816 L581.74004 727.99573 L567.263 725.31014 L559.10816 723.79736 L550.37974 722.17817 L541.10571 720.45777 L521.03279 716.7341 L504.75399 713.71426 L481.59633 709.41835 L456.98374 704.85254 L431.14005 700.05834 L404.2891 695.0773 L376.65473 689.95092 L334.22389 682.07969 L276.99658 671.46361 L234.56574 663.59239 L206.93137 658.46601 L180.08042 653.48496 L154.23673 648.69077 L129.62414 644.12496 L90.18769 636.80921 L70.11476 633.08554 L60.84074 631.36514 L52.11231 629.74595 L43.95747 628.23317 L36.40418 626.83198 L35.43307 626.65183" />
    <path d="M35.43307 617.78601 L35.87659 617.86819 L51.35706 620.73663 L59.95899 622.33052 L69.0986 624.02404 L88.88062 627.68953 L104.92349 630.66218 L127.74553 634.89097 L152.00142 639.38544 L177.47056 644.10472 L203.93236 649.00794 L231.16624 654.05422 L272.98214 661.80246 L329.38007 672.25266 L371.19597 680.0009 L398.42984 685.04718 L424.89164 689.95039 L450.36079 694.66968 L474.61667 699.16415 L497.43872 703.39294 L513.48159 706.36559 L542.40322 711.7246 L551.00514 713.31848 L559.0418 714.80763 L579.48444 718.59553 L584.9843 719.61462 L602.3622 722.83465" />
    <path d="M593.50394 712.20472 L590.85784 711.715 L581.10776 709.91051 L576.38158 709.03581 L570.96261 708.0329 L550.8206 704.30512 L542.90213 702.83961 L534.4267 701.27103 L505.93039 695.99708 L490.12344 693.07162 L467.63702 688.90995 L443.73783 684.48682 L418.64324 679.84245 L392.57058 675.01706 L365.7372 670.05088 L324.53624 662.42563 L268.9677 652.1413 L227.76674 644.51605 L200.93336 639.54987 L174.8607 634.72448 L149.7661 630.08011 L125.86692 625.65698 L103.3805 621.49531 L87.57355 618.56985 L68.08245 614.96254 L59.07724 613.2959 L50.60181 611.72732 L42.68334 610.26181 L35.43307 608.91997" />
    <path d="M35.43307 600.05369 L42.04627 601.27613 L49.84656 602.718 L58.19549 604.26128 L81.29248 608.53073 L101.8375 612.32845 L123.98831 616.42299 L147.53079 620.77478 L172.25084 625.34424 L197.93435 630.0918 L224.36723 634.97788 L264.95325 642.48014 L319.69242 652.5986 L360.27844 660.10086 L386.71132 664.98694 L412.39483 669.7345 L437.11488 674.30396 L460.65736 678.65575 L482.80817 682.75029 L503.35319 686.54801 L517.57938 689.1777 L526.45018 690.81746 L534.79911 692.36074 L542.59939 693.80261 L556.44699 696.36232 L562.44078 697.47026 L567.77887 698.457 L572.43451 699.31759 L582.03907 701.09298 L584.64567 701.5748" />
    <path d="M575.7874 690.94488 L35.43307 591.18716" />
    <path d="M35.43307 582.32037 L48.33606 584.69936 L56.43199 586.19205 L78.82907 590.32151 L98.75152 593.99471 L120.23109 597.95501 L143.06016 602.16412 L167.03112 606.58376 L191.93634 611.17566 L217.56822 615.90154 L256.92437 623.15783 L310.00477 632.94453 L349.36091 640.20082 L374.99279 644.9267 L399.89802 649.5186 L423.86898 653.93824 L446.69805 658.14735 L468.17762 662.10765 L488.10007 665.78085 L501.89515 668.32432 L510.49715 669.91031 L518.59307 671.403 L526.15699 672.7976 L539.58496 675.27338 L545.39712 676.345 L550.57345 677.29938 L555.08801 678.13175 L564.40152 679.84893 L566.92913 680.31496" />
    <path d="M558.07087 669.68504 L541.97074 666.72057 L536.87529 665.78236 L517.93579 662.29509 L510.49006 660.92413 L502.52063 659.45674 L480.4735 655.39727 L439.71839 647.89315 L417.24602 643.75539 L393.64961 639.41065 L369.13353 634.89658 L343.90214 630.2508 L305.16094 623.1175 L252.90992 613.49668 L214.16872 606.36337 L188.93734 601.7176 L164.42125 597.20352 L140.82484 592.85879 L118.35248 588.72102 L77.59736 581.2169 L55.55024 577.15743 L47.58081 575.69004 L35.43307 573.45332" />
    <path d="M35.43307 564.58598 L46.82556 566.68073 L54.66849 568.12281 L76.36566 572.11229 L116.47387 579.48703 L138.58953 583.55346 L161.81139 587.82328 L185.93833 592.25953 L210.76922 596.82521 L248.89548 603.83552 L300.31712 613.29047 L338.44338 620.30078 L363.27427 624.86646 L387.40121 629.3027 L410.62307 633.57253 L432.73873 637.63896 L453.54706 641.465 L472.84694 645.01369 L486.21093 647.47094 L494.54411 649.00317 L502.38704 650.44526 L509.71458 651.79258 L528.35346 655.21973 L533.36803 656.14176 L537.74151 656.94592 L546.76397 658.60489 L549.2126 659.05512" />
    <path d="M540.35433 648.4252 L537.9452 647.98286 L529.06826 646.353 L524.76532 645.56295 L519.83163 644.65709 L501.49338 641.29007 L494.28402 639.96639 L486.56759 638.5496 L478.36882 637.04425 L465.22038 634.63011 L446.23179 631.14368 L425.75908 627.38476 L404.00012 623.38967 L381.1528 619.19475 L357.415 614.83634 L332.98462 610.35076 L295.47329 603.46343 L244.88104 594.17436 L207.36971 587.28704 L182.93933 582.80146 L159.20153 578.44304 L136.35421 574.24813 L114.59526 570.25304 L94.12254 566.49411 L75.13395 563.00769 L53.78674 559.0882 L35.43307 555.71834" />
    <path d="M35.43307 546.85039 L531.49606 637.79528" />
    <path d="M522.6378 627.16535 L518.11956 626.33829 L511.72176 625.16717 L507.5599 624.40533 L502.78797 623.53183 L485.05097 620.28505 L466.7064 616.92706 L449.96725 613.86295 L431.60124 610.50104 L411.79976 606.87636 L390.75421 603.02395 L368.65599 598.97885 L345.69648 594.7761 L322.06709 590.45072 L285.78565 583.80937 L236.85215 574.85205 L200.57071 568.2107 L176.94132 563.88532 L153.98181 559.68256 L131.88358 555.63746 L110.83803 551.78506 L72.67055 544.79847 L55.9314 541.73435 L37.58682 538.37636 L35.43307 537.98212" />
    <path d="M35.43307 529.11349 L54.98341 532.68649 L71.43884 535.69386 L89.49356 538.99352 L108.95942 542.55107 L129.64827 546.33213 L151.37195 550.30232 L173.94231 554.42725 L197.1712 558.67253 L232.83771 565.19089 L280.94182 573.98233 L316.60832 580.5007 L339.83722 584.74598 L362.40758 588.8709 L384.13126 592.84109 L404.8201 596.62216 L442.34069 603.47937 L458.79612 606.48674 L476.82977 609.78255 L488.99887 612.00655 L498.95719 613.82652 L513.77953 616.53543" />
    <path d="M504.92126 605.90551 L500.55619 605.10908 L494.37526 603.98133 L490.35448 603.24771 L480.56786 601.46208 L468.60857 599.28004 L461.87196 598.0509 L450.88584 596.04642 L434.71412 593.09579 L397.84045 586.36796 L377.50831 582.65824 L356.15917 578.76296 L333.97795 574.71586 L311.14956 570.55068 L276.098 564.1553 L228.82326 555.52974 L193.7717 549.13436 L170.94331 544.96918 L148.76209 540.92208 L127.41295 537.0268 L107.08081 533.31708 L87.95057 529.82665 L70.20714 526.58925 L54.03542 523.63862 L36.31269 520.405 L35.43307 520.24451" />
    <path d="M35.43307 511.37514 L35.67563 511.41932 L68.97543 517.48464 L105.2022 524.08309 L125.17764 527.72147 L146.15223 531.54184 L167.9443 535.51111 L190.3722 539.5962 L224.80882 545.86858 L271.25417 554.32827 L305.6908 560.60065 L328.11869 564.68574 L349.91077 568.65501 L370.88535 572.47538 L390.86079 576.11376 L409.65541 579.53707 L427.08756 582.71221 L442.97556 585.60609 L460.38737 588.77753 L477.22248 591.84393 L481.75177 592.6689 L485.70201 593.38841 L491.7745 594.49447 L496.06299 595.27559" />
    <path d="M487.20472 584.64567 L35.43307 502.50537 L40.09736 499.06262 L57.39907 487.3612 L67.01299 480.85916 L77.22785 473.95069 L99.33716 458.99781 L111.16997 450.9951 L123.48046 442.66932 L136.2378 434.04133 L169.88394 411.28591 L198.34945 392.03424 L227.92441 372.03223 L258.36227 351.44662 L305.09769 319.83872 L368.13066 277.20852 L414.86608 245.60062 L445.30394 225.01502 L474.8789 205.01301 L503.34441 185.76133 L562.05838 146.05215 L615.82928 109.68604 L653.80598 84.0018 L673.22835 70.86614 L647.65908 84.16216 L633.13099 91.71677 L573.89119 122.52147 L562.05838 128.67453 L549.74789 135.07598 L503.34441 159.20579 L474.8789 174.00786 L368.13066 229.51694 L305.09769 262.29409 L258.36227 286.5965 L227.92441 302.42419 L198.34945 317.80317 L169.88394 332.60523 L123.48046 356.73505 L111.16997 363.1365 L99.33716 369.28956 L88.01285 375.1782 L77.22785 380.7864 L67.01299 386.09813 L57.39907 391.09737 L40.09736 400.09425 L35.43307 402.51969" />
    <path d="M35.43307 404.90336 L41.71155 406.01637 L54.19498 408.22934 L82.65887 413.27521 L98.35386 416.0575 L114.83389 418.97896 L140.71367 423.56674 L176.6355 429.9347 L213.12828 436.40388 L249.05011 442.77184 L274.92989 447.35962 L291.40992 450.28108 L307.10491 453.06337 L335.5688 458.10924 L348.05223 460.32221 L359.17967 462.29481 L368.80839 464.00172 L389.76378 467.71654" />
    <path d="M380.90551 457.08661 L368.2321 454.84666 L360.42638 453.46705 L351.0165 451.8039 L340.14195 449.88189 L327.94223 447.72566 L314.55684 445.35987 L284.78697 440.09822 L268.68148 437.25167 L243.38988 432.78153 L208.28445 426.57685 L172.62106 420.27355 L137.51563 414.06887 L112.22403 409.59872 L96.11854 406.75217 L80.78026 404.04122 L66.34868 401.49052 L52.96328 399.12473 L40.76356 396.9685 L35.43307 396.02637" />
    <path d="M35.43307 387.14848 L39.81557 387.92064 L51.73158 390.02012 L64.80568 392.32366 L78.90165 394.80723 L93.88323 397.44684 L109.61417 400.21848 L134.31759 404.57099 L168.60662 410.61239 L203.44063 416.74981 L237.72965 422.79121 L262.43307 427.14372 L278.16402 429.91536 L307.24156 435.03855 L320.31567 437.34208 L332.23167 439.44157 L342.85332 441.313 L352.04437 442.93238 L359.66857 444.27569 L365.58967 445.31893 L368.83087 445.89 L372.04724 446.45669" />
    <path d="M363.18898 435.82677 L356.88515 434.71976 L351.10503 433.70471 L343.66236 432.39771 L312.68911 426.9585 L299.92628 424.71723 L286.16594 422.30077 L256.18467 417.03577 L232.06942 412.8009 L198.5968 406.92278 L164.59217 400.95124 L131.11956 395.07312 L107.00431 390.83824 L91.64791 388.14151 L77.02304 385.57324 L50.49987 380.91551 L38.86758 378.87277 L35.43307 378.26964" />
    <path d="M35.43307 369.38976 L37.91959 369.82491 L354.33071 425.19685" />
    <path d="M345.47244 414.56693 L326.89834 411.32837 L318.3638 409.84029 L308.50084 408.1206 L297.43598 406.19134 L272.20662 401.79238 L258.29516 399.36679 L243.68785 396.81987 L220.74896 392.82027 L188.90916 387.26872 L156.56329 381.62892 L124.72348 376.07737 L101.78459 372.07776 L87.17728 369.53085 L73.26582 367.10526 L48.03646 362.7063 L35.43307 360.50878" />
    <path d="M35.43307 351.62661 L46.80476 353.60169 L58.63371 355.65619 L71.38721 357.87127 L84.94197 360.22552 L99.17472 362.69752 L121.52544 366.57949 L152.54884 371.96777 L184.06533 377.44168 L215.08873 382.82996 L237.43945 386.71192 L251.6722 389.18393 L277.98046 393.75326 L289.80941 395.80776 L300.59056 397.68028 L310.20062 399.34939 L318.51633 400.7937 L325.41442 401.99179 L336.61417 403.93701" />
    <path d="M327.75591 393.30709 L316.85088 391.42081 L310.13432 390.25903 L302.03745 388.85849 L292.68028 387.23995 L282.18285 385.42418 L270.66518 383.43193 L245.04925 379.00107 L231.19104 376.60398 L209.4285 372.83964 L179.22151 367.61465 L148.5344 362.30661 L118.3274 357.08162 L96.56486 353.31728 L82.70665 350.92019 L69.5086 348.63728 L57.09072 346.48933 L45.57305 344.49708 L35.43307 342.74314" />
    <path d="M35.43307 336.0547 L57.39907 326.92147 L67.01299 322.92411 L77.22785 318.67687 L99.33716 309.48406 L111.16997 304.5641 L123.48046 299.44553 L142.77442 291.4233 L169.88394 280.15145 L198.34945 268.31579 L227.92441 256.01883 L258.36227 243.36309 L305.09769 223.931 L368.13066 197.72255 L414.86608 178.29045 L445.30394 165.63471 L474.8789 153.33775 L530.45393 130.23024 L562.05838 117.08944 L615.82928 94.73207 L653.80598 78.94176 L673.22835 70.86614 L653.80598 77.49603 L624.81142 87.39342 L606.21536 93.74125 L549.74789 113.01661 L503.34441 128.8566 L474.8789 138.5734 L445.30394 148.66891 L368.13066 175.01227 L305.09769 196.52879 L227.92441 222.87215 L142.77442 251.93839 L111.16997 262.72667 L99.33716 266.76584 L67.01299 277.79981 L57.39907 281.08155 L48.41692 284.14764 L35.43307 288.57972 L58.23693 293.23334 L69.29476 295.0882 L80.9057 297.03585 L99.13918 300.09436 L124.44774 304.33967 L150.15856 308.65245 L175.46712 312.89776 L193.7006 315.95628 L216.36937 319.75878 L226.77353 321.504 L236.42347 323.1227 L259.84227 327.05101 L265.46966 327.99496 L269.83999 328.72805 L274.6063 329.52756" />
    <path d="M265.74803 318.89764 L36.95113 280.76482 L35.43307 280.51181" />
    <path d="M35.43307 271.61282 L44.74678 273.1544 L54.47971 274.76536 L75.68597 278.27537 L92.7431 281.09861 L116.41885 285.01736 L140.47091 288.99839 L164.14666 292.91713 L181.20379 295.74038 L192.06563 297.5382 L202.41005 299.25038 L221.17034 302.35554 L229.39806 303.71737 L236.73205 304.93127 L243.07825 305.98167 L256.88976 308.26772" />
    <path d="M248.0315 297.6378 L239.77904 296.28204 L234.69625 295.447 L228.56888 294.44037 L221.48778 293.27704 L213.54378 291.97196 L204.82771 290.54003 L195.4304 288.99619 L180.2558 286.50322 L158.48643 282.92682 L89.54506 271.60074 L52.6011 265.53137 L35.43307 262.71091" />
    <path d="M35.43307 253.80577 L50.72249 256.29738 L86.34702 262.10286 L130.78326 269.34432 L213.5775 282.83672 L220.40571 283.94946 L226.31424 284.91233 L231.21551 285.71106 L239.17323 287.00787" />
    <path d="M230.31496 276.37795 L212.24253 273.45856 L198.29065 271.2048 L147.16597 262.94619 L125.93944 259.51729 L104.37552 256.03389 L62.93458 249.33958 L48.84388 247.06339 L35.43307 244.89703" />
    <path d="M35.43307 252.97348 L48.41692 249.26625 L67.01299 243.95658 L111.16997 231.3486 L123.48046 227.83363 L142.77442 222.3247 L169.88394 214.58422 L198.34945 206.45656 L227.92441 198.01213 L258.36227 189.32132 L305.09769 175.97713 L368.13066 157.97956 L414.86608 144.63537 L445.30394 135.94456 L474.8789 127.50013 L503.34441 119.37248 L549.74789 106.12306 L615.82928 87.25509 L673.22835 70.86614" />
    <path d="M310.03937 372.04724 L43.10965 326.28786 L35.43307 324.97188" />
    <path d="M35.43307 333.85827 L44.34135 335.39247 L67.62999 339.40329 L80.47134 341.61486 L93.955 343.93704 L115.12937 347.58374 L144.51996 352.64545 L174.37768 357.78762 L203.76827 362.84933 L224.94264 366.49603 L251.26765 371.02978 L263.34991 373.11061 L274.55629 375.0406 L301.75232 379.72436 L308.28734 380.84984 L313.36257 381.7239 L318.89764 382.67717" />
    <path d="M301.1811 361.41732 L284.9883 358.65502 L277.54793 357.38578 L268.94945 355.91898 L259.30316 354.27344 L237.30834 350.52138 L225.18039 348.4525 L212.44582 346.28013 L192.44781 342.8687 L164.69003 338.13355 L136.49107 333.32314 L108.73329 328.58799 L88.73528 325.17656 L76.00071 323.0042 L63.87277 320.93531 L41.87794 317.18325 L35.43307 316.08384" />
    <path d="M35.43307 307.19399 L40.64624 308.07865 L50.91875 309.82186 L61.99415 311.70132 L73.76539 313.69887 L86.12542 315.79632 L105.53525 319.09011 L132.47663 323.66198 L159.84621 328.30652 L186.78758 332.87839 L206.19742 336.17218 L218.55744 338.26964 L241.40408 342.14664 L251.6766 343.88986 L261.03917 345.47866 L269.38475 346.89488 L276.60629 348.12035 L282.59673 349.13691 L292.32283 350.7874" />
    <path d="M283.46457 340.15748 L274.03319 338.56594 L268.22428 337.58568 L261.22158 336.40398 L253.12889 335.03834 L244.05003 333.50628 L234.08881 331.82532 L211.93449 328.08678 L199.94901 326.06423 L181.12735 322.88808 L155.00238 318.47949 L128.46218 314.00083 L102.33721 309.59224 L83.51556 306.41609 L71.53008 304.39354 L60.11554 302.46733 L49.37576 300.65499 L39.41453 298.97404 L35.43307 298.30217" />
    <path d="M35.43307 235.98425 L221.45669 265.74803" />
    <path d="M212.59843 255.11811 L201.16821 253.30833 L195.91618 252.47676 L189.84667 251.51575 L167.51177 247.97939 L154.50497 245.91998 L116.25179 239.86323 L96.34664 236.71158 L58.09345 230.65482 L45.08666 228.59541 L35.43307 227.06693" />
    <path d="M35.43307 413.77953 L42.65954 415.06423 L398.62205 478.34646" />
    <path d="M407.48031 488.97638 L398.96951 487.45923 L395.72467 486.88081 L385.5724 485.07105 L350.82192 478.8764 L336.50266 476.32384 L321.06422 473.57177 L287.4267 467.57552 L260.37057 462.75247 L222.81593 456.05794 L184.66439 449.25702 L147.10975 442.56249 L120.05361 437.73944 L102.82449 434.66817 L86.41609 431.74319 L56.65839 426.43856 L43.60753 424.1121 L35.43307 422.65491" />
    <path d="M35.43307 431.52957 L44.55552 433.15996 L57.8901 435.54317 L72.52065 438.15799 L88.29471 440.97718 L105.0598 443.9735 L122.66348 447.11968 L150.30778 452.06037 L188.67883 458.91817 L227.65975 465.88498 L266.0308 472.74278 L293.67511 477.68347 L311.27878 480.82965 L343.81794 486.64516 L358.44849 489.25998 L371.78306 491.64318 L383.66919 493.76751 L393.95441 495.60572 L400.52601 496.78022 L404.32738 497.45962 L416.33858 499.6063" />
    <path d="M425.19685 510.23622 L412.93009 508.03843 L409.04784 507.34286 L402.33642 506.14039 L391.83237 504.25842 L379.69334 502.08351 L366.07505 499.64356 L351.13321 496.96649 L335.02353 494.08017 L317.90173 491.01251 L299.92351 487.79141 L281.24459 484.44477 L262.02068 481.00049 L232.50358 475.71201 L192.69327 468.57933 L163.17617 463.29085 L143.95226 459.84656 L125.27334 456.49992 L107.29512 453.27883 L90.17332 450.21117 L74.06364 447.32485 L59.1218 444.64777 L45.50351 442.20783 L35.43307 440.40354" />
    <path d="M35.43307 449.27688 L46.4515 451.2557 L60.3535 453.75238 L92.05193 459.44516 L109.53043 462.58416 L127.8832 465.88016 L146.95126 469.30463 L166.57567 472.82902 L196.70772 478.24049 L237.3474 485.53904 L267.47945 490.95051 L287.10386 494.47489 L306.17192 497.89936 L324.52468 501.19537 L342.00319 504.33437 L373.70161 510.02715 L387.60362 512.52383 L399.99554 514.74932 L421.5328 518.61724 L434.05512 520.86614" />
    <path d="M442.91339 531.49606 L35.43307 458.14961" />
    <path d="M35.43307 467.02177 L35.44976 467.02478 L48.34748 469.35143 L62.81691 471.9616 L95.80915 477.91314 L114.00106 481.19482 L133.10292 484.64064 L152.94927 488.22077 L173.37468 491.90535 L204.7366 497.5628 L247.03505 505.19311 L278.39697 510.85055 L298.82238 514.53513 L318.66873 518.11526 L355.96251 524.84277 L373.07904 527.93045 L388.95474 530.79431 L416.32189 535.73112 L438.73822 539.77486 L442.33576 540.42382 L451.77165 542.12598" />
    <path d="M460.62992 552.75591 L454.11831 551.57881 L447.34093 550.35367 L438.41278 548.73973 L433.19489 547.7965 L424.48506 546.22203 L411.33445 543.8448 L396.5813 541.17789 L380.39431 538.25178 L344.39354 531.74394 L324.91714 528.22321 L304.68164 524.56526 L283.85574 520.80057 L251.87887 515.02014 L208.75105 507.22396 L176.77418 501.44352 L155.94828 497.67884 L135.71278 494.02088 L116.23638 490.50015 L97.68776 487.14713 L80.23561 483.99232 L64.04862 481.06621 L49.29547 478.39929 L35.43307 475.8934" />
    <path d="M35.43307 484.76452 L50.24346 487.44716 L65.28032 490.17082 L81.7786 493.15918 L99.56637 496.38112 L118.47169 499.80548 L138.32264 503.40112 L158.94728 507.13691 L180.17369 510.98169 L212.76549 516.88511 L256.7227 524.84717 L289.3145 530.75059 L310.54091 534.59538 L331.16555 538.33116 L351.0165 541.9268 L369.92182 545.35116 L387.70959 548.5731 L404.20787 551.56147 L419.24473 554.28512 L432.64824 556.71293 L441.52556 558.3209 L446.8438 559.2842 L455.94364 560.93247 L469.48819 563.38583" />
    <path d="M478.34646 574.01575 L474.21112 573.26526 L468.35551 572.20258 L464.54635 571.51128 L460.17882 570.71866 L449.85623 568.8453 L440.81141 567.20383 L427.15501 564.72545 L411.83443 561.94505 L376.90148 555.60536 L357.63945 552.10966 L337.41395 548.43911 L316.40017 544.6255 L294.77327 540.70061 L261.56652 534.6742 L216.77993 526.54627 L183.57319 520.51986 L161.94629 516.59498 L140.9325 512.78136 L120.70701 509.11081 L101.44498 505.61511 L66.51203 499.27543 L51.19145 496.49502 L35.43307 493.63517" />
    <path d="M35.43307 679.84252 L39.56976 680.6147 L664.37008 797.24409" />
    <path d="M673.22835 807.87402 L670.22681 807.3132 L659.16702 805.24677 L653.80598 804.2451 L647.65908 803.0966 L640.75714 801.80703 L624.81142 798.8277 L615.82928 797.14945 L606.21536 795.35317 L596.00049 793.4446 L573.89119 789.31365 L562.05838 787.10278 L549.74789 784.80267 L530.45393 781.19774 L503.34441 776.13254 L474.8789 770.81399 L445.30394 765.28814 L414.86608 759.60107 L368.13066 750.86892 L305.09769 739.09171 L258.36227 730.35956 L227.92441 724.67249 L198.34945 719.14664 L169.88394 713.82809 L142.77442 708.76289 L123.48046 705.15796 L111.16997 702.85785 L99.33716 700.64698 L77.22785 696.51603 L67.01299 694.60746 L57.39907 692.81118 L48.41692 691.13293 L35.43307 688.707" />
    <path d="M35.43307 697.57133 L58.15432 701.8205 L67.89474 703.64208 L78.24401 705.57753 L100.64423 709.76666 L112.63273 712.00867 L125.1052 714.34118 L144.65303 717.99688 L172.11925 723.13342 L200.95931 728.52688 L230.92341 734.13056 L261.76177 739.89773 L309.11213 748.75286 L372.97449 760.69595 L420.32484 769.55109 L451.1632 775.31826 L481.1273 780.92194 L509.96736 786.3154 L537.43359 791.45194 L556.98142 795.10764 L569.45388 797.44015 L581.44239 799.68216 L614.19188 805.80674 L623.93229 807.62832 L633.03263 809.3302 L656.18091 813.65923 L662.40869 814.82391 L667.84027 815.83968 L679.04558 817.93522 L680.98013 818.29701 L682.08661 818.50394" />
    <path d="M690.94488 829.13386 L671.0114 825.40272 L664.70274 824.22187 L641.25383 819.83271 L632.03531 818.10719 L622.1684 816.26031 L588.99359 810.05067 L576.84939 807.77752 L564.21494 805.41261 L544.41324 801.70614 L516.59031 796.49826 L487.37571 791.02989 L457.02246 785.34838 L425.78361 779.50111 L377.81831 770.52299 L313.12657 758.41402 L265.16127 749.4359 L233.92242 743.58863 L203.56917 737.90712 L174.35457 732.43875 L146.53164 727.23087 L126.72994 723.52439 L114.09549 721.15949 L101.9513 718.88634 L79.26016 714.63903 L68.77649 712.6767 L58.90957 710.82981 L41.15255 707.50606 L35.43307 706.43549" />
    <path d="M35.43307 715.29951 L50.32812 718.08998 L59.66482 719.83913 L69.65824 721.71131 L80.27632 723.70053 L103.25836 728.00602 L115.55826 730.31031 L128.35468 732.70761 L148.41025 736.46486 L176.58988 741.74408 L206.17903 747.28736 L236.92142 753.0467 L268.56078 758.97407 L317.14101 768.07518 L382.66213 780.35002 L431.24237 789.45113 L462.88173 795.3785 L493.62412 801.13783 L523.21327 806.68112 L551.3929 811.96034 L571.44847 815.71759 L584.24489 818.11489 L596.54478 820.41917 L619.52683 824.72467 L630.14491 826.71388 L640.13833 828.58607 L649.47503 830.33522 L666.05019 833.44044 L673.22457 834.7845 L679.61411 835.98153 L685.18677 837.02552 L696.68313 839.17927 L699.80315 839.76378" />
    <path d="M708.66142 850.3937 L35.43307 724.16339" />
    <path d="M35.43307 733.02712 L51.60225 736.06134 L61.17532 737.85777 L71.42173 739.78055 L82.30863 741.82352 L105.8725 746.24538 L118.48378 748.61195 L131.60417 751.07404 L152.16747 754.93284 L181.06051 760.35474 L211.39876 766.04784 L242.91943 771.96283 L275.35978 778.05041 L325.1699 787.39749 L392.34978 800.00409 L442.1599 809.35117 L474.60025 815.43874 L506.12093 821.35373 L536.45917 827.04683 L565.35221 832.46874 L585.91552 836.32753 L599.0359 838.78963 L611.64718 841.15619 L635.21105 845.57805 L646.09795 847.62102 L656.34436 849.54381 L665.91744 851.34024 L682.91222 854.52938 L690.26823 855.90977 L696.81953 857.13915 L708.66142 859.36133" />
    <path d="M708.66142 868.32629 L705.42224 867.71796 L698.79006 866.4724 L674.13864 861.84275 L664.44738 860.02268 L654.07447 858.0746 L619.19838 851.5247 L606.43141 849.127 L593.14904 846.6325 L572.33187 842.72294 L543.08212 837.22969 L512.36934 831.46168 L480.45951 825.46886 L447.61866 819.30119 L397.19361 809.83112 L329.18434 797.05865 L278.75929 787.58857 L245.91844 781.4209 L214.00862 775.42808 L183.29583 769.66007 L154.04608 764.16683 L133.22891 760.25726 L119.94655 757.76277 L107.17957 755.36507 L83.32479 750.88502 L72.30348 748.81517 L61.93058 746.86708 L43.26294 743.36121 L35.43307 741.89072" />
    <path d="M35.43307 750.7542 L35.46197 750.75963 L62.68583 755.8764 L73.18523 757.84979 L84.34094 759.94652 L108.48664 764.48475 L121.40931 766.91359 L134.85365 769.44048 L155.92469 773.40082 L185.53114 778.9654 L216.61848 784.80832 L248.91744 790.87897 L282.15879 797.12674 L333.19879 806.7198 L402.03743 819.65815 L453.07743 829.25121 L486.31878 835.49898 L518.61774 841.56963 L549.70508 847.41255 L579.31153 852.97714 L600.38257 856.93748 L613.82691 859.46437 L626.74958 861.89321 L662.05099 868.52817 L672.55039 870.50155 L682.35984 872.34525 L707.31189 877.03504 L708.66142 877.28868" />
    <path d="M708.66142 886.24859 L708.20526 886.16279 L690.58105 882.84776 L680.65341 880.98042 L670.0275 878.98174 L658.73739 876.85812 L634.30078 872.26171 L621.22242 869.80173 L607.61609 867.24245 L586.29119 863.23134 L556.32803 857.59541 L524.86615 851.67758 L492.17804 845.5291 L458.53619 839.20123 L406.88126 829.48518 L337.21323 816.38096 L285.5583 806.66491 L251.91645 800.33704 L219.22834 794.18856 L187.76646 788.27073 L157.8033 782.63481 L136.4784 778.62369 L122.87207 776.06441 L109.7937 773.60443 L85.3571 769.00802 L74.06698 766.8844 L63.44108 764.88572 L53.51344 763.01838 L35.88922 759.70335 L35.43307 759.61755" />
    <path d="M35.43307 768.48078 L698.80225 893.35027 L708.66142 895.20611" />
    <path d="M708.66142 904.16133 L696.85944 901.93816 L685.98054 899.88888 L674.42161 897.7115 L649.40318 892.99873 L636.01343 890.47647 L622.08314 887.85239 L600.2505 883.73973 L569.57394 877.96113 L537.36296 871.89348 L503.89656 865.58934 L469.45372 859.10127 L416.56891 849.13925 L345.24212 835.70327 L292.3573 825.74125 L257.91446 819.25318 L224.44806 812.94904 L192.23709 806.88139 L161.56052 801.10279 L139.72788 796.99013 L125.7976 794.36605 L112.40784 791.84379 L87.38941 787.13102 L75.83048 784.95364 L64.95158 782.90436 L54.78757 780.98974 L36.74373 777.59078 L35.43307 777.34389" />
    <path d="M35.43307 786.2069 L37.17098 786.5345 L65.70683 791.91367 L76.71223 793.98826 L88.40557 796.19252 L113.71491 800.96347 L127.26036 803.51687 L141.35263 806.17334 L163.43913 810.33678 L194.4724 816.18672 L227.05792 822.32928 L260.91347 828.71125 L295.75681 835.27942 L349.25656 845.36443 L421.41273 858.96628 L474.91249 869.05129 L509.75583 875.61946 L543.61137 882.00143 L576.19689 888.14398 L607.23016 893.99393 L629.31667 898.15737 L643.40893 900.81384 L656.95438 903.36724 L682.26372 908.13819 L693.95706 910.34245 L708.66142 913.11431" />
    <path d="M708.66142 922.06514 L701.93358 920.79602 L690.10584 918.56488 L664.50558 913.73574 L650.80444 911.15121 L636.55019 908.46234 L621.77853 905.67587 L606.52513 902.79852 L582.81984 898.32684 L549.85978 892.10938 L515.61509 885.64958 L480.37125 879.00131 L426.25656 868.79331 L353.271 855.02558 L299.15631 844.81759 L263.91247 838.16932 L229.66778 831.70952 L196.70772 825.49206 L173.00243 821.02038 L157.74903 818.14303 L142.97737 815.35656 L128.72312 812.66769 L115.02198 810.08315 L89.42172 805.25402 L77.59398 803.02287 L66.46208 800.92299 L37.59823 795.47822 L35.43307 795.06979" />
    <path d="M35.43307 803.93258 L56.69876 807.94678 L67.21733 809.93231 L78.47573 812.05749 L90.43788 814.31551 L116.32904 819.20284 L130.18588 821.81851 L144.60211 824.53977 L159.54164 827.35982 L174.96837 830.27183 L198.94303 834.79739 L232.27764 841.08976 L266.91148 847.62738 L302.55581 854.35575 L357.28545 864.68674 L431.10038 878.62035 L485.83001 888.95133 L521.47435 895.6797 L556.10818 902.21732 L589.44279 908.5097 L628.84419 915.94727 L643.78371 918.76731 L658.19994 921.48858 L672.05678 924.10425 L697.94795 928.99157 L708.66142 931.01389" />
    <path d="M708.66142 939.96063 L705.79006 939.41826 L35.43307 812.79528" />
    <path d="M35.43307 821.65787 L38.87999 822.30938 L57.97289 825.91814 L68.72783 827.95095 L80.23923 830.12673 L92.47019 832.43851 L118.94318 837.4422 L133.11141 840.12015 L147.8516 842.90621 L163.12684 845.7934 L178.90024 848.77474 L203.41366 853.40805 L237.49737 859.85024 L272.90949 866.54352 L309.35482 873.43209 L365.31433 884.00905 L440.78803 898.27441 L496.74754 908.85137 L533.19287 915.73994 L568.60499 922.43322 L602.6887 928.87542 L642.97552 936.49007 L658.25076 939.37726 L672.99095 942.16332 L687.15918 944.84127 L708.66142 948.90543" />
    <path d="M708.66142 957.84834 L708.41876 957.80245 L694.71038 955.20977 L680.38646 952.50068 L665.48429 949.68223 L650.04119 946.76147 L634.09445 943.74546 L609.31165 939.05828 L574.8534 932.54117 L539.05214 925.77006 L502.20631 918.80139 L445.63185 908.10144 L369.32878 893.67021 L312.75432 882.97026 L275.90849 876.00159 L240.10723 869.23048 L205.64898 862.71338 L180.86618 858.0262 L164.91944 855.01018 L149.47634 852.08942 L134.57417 849.27097 L120.25025 846.56188 L93.48635 841.50001 L81.12098 839.16134 L69.48308 836.96026 L48.53891 832.99908 L35.43307 830.52037" />
    <path d="M35.43307 839.38278 L39.7345 840.19681 L49.06651 841.96287 L70.23834 845.96958 L82.00273 848.19596 L94.5025 850.56151 L121.55732 855.68156 L136.03694 858.42179 L151.10108 861.27264 L166.71205 864.22697 L182.83211 867.27765 L207.88429 872.01871 L242.71709 878.61072 L278.9075 885.45966 L316.15383 892.50843 L373.34322 903.33137 L450.47568 917.92848 L507.66507 928.75142 L544.9114 935.80018 L581.10181 942.64912 L615.9346 949.24113 L640.98678 953.98219 L657.10685 957.03287 L672.71781 959.9872 L687.78196 962.83805 L708.66142 966.78943" />
    <path d="M708.66142 975.72877 L695.17747 973.17542 L679.95134 970.29218 L664.17252 967.30427 L622.55756 959.42399 L587.35021 952.75707 L550.77066 945.8303 L513.12384 938.70144 L455.3195 927.75551 L377.35766 912.99252 L319.55333 902.0466 L281.9065 894.91773 L245.32695 887.99096 L210.11961 881.32404 L184.79805 876.52911 L168.50465 873.44376 L152.72583 870.45586 L137.4997 867.57261 L122.86438 864.80124 L95.51866 859.62301 L82.88448 857.23058 L70.99359 854.9789 L59.88409 852.87519 L35.43307 848.2451" />
    <path d="M35.43307 857.10734 L702.57297 983.51279 L708.66142 984.66639" />
    <path d="M708.66142 993.60236 L694.41839 990.90212 L678.30385 987.84707 L661.66378 984.69239 L635.80346 979.78971 L599.84703 972.97297 L562.48919 965.89054 L524.04136 958.60148 L465.00715 947.40957 L385.38655 932.31484 L326.35234 921.12293 L287.90451 913.83387 L250.54667 906.75144 L214.59024 899.9347 L188.72992 895.03202 L172.08985 891.87734 L155.97531 888.82229 L140.42522 885.87425 L125.47852 883.0406 L97.55097 877.74601 L84.64798 875.29982 L72.50409 872.99754 L61.15822 870.84655 L41.01626 867.02797 L35.43307 865.96949" />
  </g>
</svg>